<svg width="21" height="22" viewBox="0 0 21 22" fill="none" xmlns="http://www.w3.org/2000/svg">
<g clip-path="url(#clip0_40_912)">
<path fill-rule="evenodd" clip-rule="evenodd" d="M3 19.4465C2.68933 19.4465 2.4375 19.1827 2.4375 18.8572V3.14293C2.4375 2.81747 2.68933 2.55364 3 2.55364H18C18.3106 2.55364 18.5625 2.81747 18.5625 3.14293V9.42864C18.5625 9.97107 18.9822 10.4108 19.5 10.4108C20.0178 10.4108 20.4375 9.97107 20.4375 9.42864V3.14293C20.4375 1.73263 19.3462 0.589355 18 0.589355H3C1.65381 0.589355 0.5625 1.73263 0.5625 3.14293V18.8572C0.5625 20.2676 1.65381 21.4108 3 21.4108H9C9.51777 21.4108 9.9375 20.9711 9.9375 20.4286C9.9375 19.8862 9.51777 19.4465 9 19.4465H3ZM12.5625 20.4286C12.5625 20.9711 12.9822 21.4108 13.5 21.4108H19.5C20.0178 21.4108 20.4375 20.9711 20.4375 20.4286V14.1429C20.4375 13.6005 20.0178 13.1608 19.5 13.1608C18.9822 13.1608 18.5625 13.6005 18.5625 14.1429V18.0575L11.1629 10.3056C10.7968 9.92204 10.2032 9.92204 9.83709 10.3056C9.47097 10.6891 9.47097 11.311 9.83709 11.6945L17.2366 19.4465H13.5C12.9822 19.4465 12.5625 19.8862 12.5625 20.4286Z" fill="#525252"/>
</g>
<defs>
<clipPath id="clip0_40_912">
<rect width="21" height="22" fill="white"/>
</clipPath>
</defs>
</svg>
