<svg width="20" height="22" viewBox="0 0 20 22" fill="none" xmlns="http://www.w3.org/2000/svg">
<g clip-path="url(#clip0_40_909)">
<path fill-rule="evenodd" clip-rule="evenodd" d="M1.78571 11C1.78571 6.00971 5.46337 1.96429 10 1.96429C14.5366 1.96429 18.2143 6.00971 18.2143 11C18.2143 15.9902 14.5366 20.0357 10 20.0357C5.46337 20.0357 1.78571 15.9902 1.78571 11ZM10 0C4.47716 0 0 4.92487 0 11C0 17.0751 4.47716 22 10 22C15.5229 22 20 17.0751 20 11C20 4.92487 15.5229 0 10 0ZM14.329 6.23805C14.7474 6.69831 14.7474 7.44455 14.329 7.9048L11.5152 11L14.329 14.0952C14.7474 14.5555 14.7474 15.3017 14.329 15.7619C13.9106 16.2222 13.2322 16.2222 12.8138 15.7619L10 12.6668L7.18619 15.7619C6.76777 16.2222 6.08937 16.2222 5.67096 15.7619C5.25254 15.3017 5.25254 14.5555 5.67096 14.0952L8.48477 11L5.67096 7.9048C5.25254 7.44455 5.25254 6.69831 5.67096 6.23805C6.08937 5.7778 6.76777 5.7778 7.18619 6.23805L10 9.33325L12.8138 6.23805C13.2322 5.7778 13.9106 5.7778 14.329 6.23805Z" fill="#525252"/>
</g>
<defs>
<clipPath id="clip0_40_909">
<rect width="20" height="22" fill="white"/>
</clipPath>
</defs>
</svg>
