<svg width="24" height="24" viewBox="0 0 24 24" fill="none" xmlns="http://www.w3.org/2000/svg">
<path d="M12.0055 13.0939C12.6602 13.0939 13.3003 12.8998 13.8446 12.5361C14.389 12.1723 14.8133 11.6554 15.0639 11.0504C15.3143 10.4455 15.3798 9.77998 15.2522 9.13788C15.1245 8.49569 14.8092 7.90591 14.3462 7.44288C13.8833 6.97994 13.2934 6.66466 12.6513 6.53698C12.0092 6.40919 11.3435 6.47482 10.7387 6.72532C10.1339 6.97591 9.61684 7.40013 9.25309 7.94454C8.88934 8.48894 8.69518 9.12898 8.69518 9.78363C8.69518 10.6616 9.04393 11.5036 9.66475 12.1244C10.2856 12.7452 11.1275 13.0939 12.0055 13.0939ZM12.0055 8.68019C12.2237 8.68019 12.437 8.74498 12.6185 8.86619C12.7999 8.98741 12.9414 9.15973 13.0249 9.36138C13.1085 9.56304 13.1303 9.78485 13.0877 9.99898C13.0451 10.2129 12.9401 10.4095 12.7857 10.5639C12.6315 10.7181 12.4349 10.8233 12.2207 10.8659C12.0067 10.9084 11.7849 10.8866 11.5832 10.8032C11.3816 10.7196 11.2093 10.5782 11.088 10.3967C10.9668 10.2153 10.9021 10.002 10.9021 9.78373C10.9021 9.49104 11.0183 9.21035 11.2252 9.00344C11.4321 8.79644 11.7128 8.68019 12.0055 8.68019ZM22.5874 18.7877C22.0486 17.0007 21.0653 15.3797 19.7295 14.0761C20.4731 12.7321 20.8532 11.2174 20.8322 9.68173C20.8111 8.14591 20.3897 6.64226 19.6097 5.31916C18.8297 3.99607 17.718 2.89948 16.3844 2.13757C15.0507 1.37566 13.5413 0.974976 12.0055 0.974976C10.4696 0.974976 8.96031 1.37566 7.62662 2.13757C6.29303 2.89948 5.18125 3.99607 4.40125 5.31916C3.62125 6.64226 3.19984 8.14591 3.17884 9.68173C3.15784 11.2174 3.5379 12.7321 4.28143 14.0761C2.93781 15.3753 1.94996 16.9975 1.4125 18.7877C1.26887 19.2786 1.24093 19.7961 1.33093 20.2997C1.42093 20.8031 1.62634 21.2789 1.93112 21.6897C2.24162 22.1074 2.64625 22.4459 3.11218 22.6778C3.57803 22.9099 4.09206 23.0287 4.61246 23.0249H19.3984C19.9171 23.0269 20.4288 22.9073 20.8927 22.6754C21.3565 22.4434 21.7593 22.1059 22.0688 21.6897C22.3736 21.2789 22.579 20.8031 22.6689 20.2997C22.759 19.7961 22.7311 19.2786 22.5874 18.7877ZM12.0055 3.1631C13.3149 3.1631 14.5949 3.55132 15.6837 4.27882C16.7724 5.00632 17.621 6.04029 18.1221 7.25004C18.6232 8.45979 18.7543 9.79094 18.4988 11.0752C18.2434 12.3595 17.6129 13.5393 16.687 14.4651C15.761 15.391 14.5814 16.0217 13.2972 16.277C12.0129 16.5325 10.6817 16.4014 9.4719 15.9004C8.26215 15.3992 7.22809 14.5506 6.50068 13.4619C5.77318 12.3731 5.38487 11.0931 5.38487 9.78373C5.38487 8.02779 6.08237 6.34376 7.324 5.10223C8.56562 3.8606 10.2496 3.1631 12.0055 3.1631ZM20.3033 20.3656C20.1994 20.5076 20.0632 20.6229 19.9058 20.7016C19.7484 20.7803 19.5745 20.8203 19.3984 20.818H4.61246C4.4365 20.8203 4.26259 20.7803 4.10518 20.7016C3.94778 20.6228 3.81146 20.5076 3.70768 20.3656C3.6085 20.2289 3.54193 20.0713 3.51325 19.9048C3.48456 19.7384 3.4944 19.5676 3.54212 19.4057C3.93821 18.0718 4.64978 16.853 5.61662 15.8525C6.44096 16.7171 7.43228 17.4054 8.53046 17.8758C9.62865 18.346 10.8109 18.5885 12.0055 18.5885C13.2002 18.5885 14.3823 18.346 15.4805 17.8758C16.5786 17.4054 17.57 16.7171 18.3944 15.8525C19.3612 16.853 20.0727 18.0718 20.4688 19.4057C20.5166 19.5676 20.5264 19.7384 20.4977 19.9048C20.4691 20.0713 20.4025 20.2289 20.3033 20.3656Z" fill="#B9BED6"/>
</svg>
