<svg width="24" height="24" viewBox="0 0 24 24" fill="none" xmlns="http://www.w3.org/2000/svg">
<g clip-path="url(#clip0_453_1924)">
<path fill-rule="evenodd" clip-rule="evenodd" d="M12 0C5.37258 0 0 5.37258 0 12C0 18.6274 5.37258 24 12 24C18.6274 24 24 18.6274 24 12C24 5.37258 18.6274 0 12 0ZM10.7234 16.8511V14.5532H11.7447C14.8095 14.5532 17.617 13.5319 17.617 10.2128C17.617 6.89362 14.5542 5.87234 11.4894 5.87234C10.4119 5.87234 9.5161 5.96334 8.84063 6.06853C7.97178 6.2038 7.40426 6.97614 7.40426 7.85551V16.8511C7.40426 17.5561 7.97581 18.1277 8.68085 18.1277H9.44681C10.1518 18.1277 10.7234 17.5561 10.7234 16.8511ZM14.2979 10.2128C14.2979 11.7447 12.4298 11.7447 11.4894 11.7447H10.7234V8.68085H11.4894C12.4348 8.68085 14.2979 8.68085 14.2979 10.2128Z" fill="#1C2D7B"/>
</g>
<defs>
<clipPath id="clip0_453_1924">
<rect width="24" height="24" fill="white"/>
</clipPath>
</defs>
</svg>
