<svg width="24" height="24" viewBox="0 0 24 24" fill="none" xmlns="http://www.w3.org/2000/svg">
<g clip-path="url(#clip0_458_641)">
<path fill-rule="evenodd" clip-rule="evenodd" d="M1.71428 0.642822C1.12255 0.642822 0.642853 1.12252 0.642853 1.71425C0.642853 2.30599 1.12255 2.78568 1.71428 2.78568H22.2857C22.8775 2.78568 23.3571 2.30599 23.3571 1.71425C23.3571 1.12252 22.8775 0.642822 22.2857 0.642822H1.71428ZM3.42857 7.49997C2.83683 7.49997 2.35714 7.97966 2.35714 8.57139C2.35714 9.16313 2.83683 9.64282 3.42857 9.64282H20.5714C21.1632 9.64282 21.6429 9.16313 21.6429 8.57139C21.6429 7.97966 21.1632 7.49997 20.5714 7.49997H3.42857ZM4.07142 15.4285C4.07142 14.8368 4.55112 14.3571 5.14285 14.3571H18.8571C19.4489 14.3571 19.9286 14.8368 19.9286 15.4285C19.9286 16.0203 19.4489 16.5 18.8571 16.5H5.14285C4.55112 16.5 4.07142 16.0203 4.07142 15.4285ZM6.85714 21.2143C6.2654 21.2143 5.78571 21.6939 5.78571 22.2857C5.78571 22.8775 6.2654 23.3571 6.85714 23.3571H17.1429C17.7346 23.3571 18.2143 22.8775 18.2143 22.2857C18.2143 21.6939 17.7346 21.2143 17.1429 21.2143H6.85714Z" fill="#1C2D7B"/>
</g>
<defs>
<clipPath id="clip0_458_641">
<rect width="24" height="24" fill="white"/>
</clipPath>
</defs>
</svg>
