<svg width="24" height="24" viewBox="0 0 24 24" fill="none" xmlns="http://www.w3.org/2000/svg">
<path fill-rule="evenodd" clip-rule="evenodd" d="M12 0.25C6.89135 0.25 2.75 4.39137 2.75 9.5C2.75 12.4298 4.11209 15.0414 6.23755 16.7362C4.65446 17.6803 3.58155 18.9201 2.88981 19.9825C2.40043 20.7341 2.41405 21.5892 2.80399 22.2668C3.1853 22.9293 3.89852 23.3806 4.7366 23.4521C6.425 23.5963 8.94185 23.75 11.9999 23.75C15.058 23.75 17.5749 23.5963 19.2633 23.4521C20.1013 23.3806 20.8146 22.9293 21.1959 22.2668C21.5858 21.5892 21.5994 20.7341 21.11 19.9825C20.4183 18.9201 19.3454 17.6803 17.7623 16.7363C19.8879 15.0415 21.25 12.4298 21.25 9.5C21.25 4.39137 17.1086 0.25 12 0.25ZM18 9.5C18 12.8137 15.3137 15.5 12 15.5C8.6863 15.5 6 12.8137 6 9.5C6 6.1863 8.6863 3.5 12 3.5C15.3137 3.5 18 6.1863 18 9.5ZM12 6.75C10.4812 6.75 9.25 7.9812 9.25 9.5C9.25 11.0188 10.4812 12.25 12 12.25C13.5188 12.25 14.75 11.0188 14.75 9.5C14.75 7.9812 13.5188 6.75 12 6.75Z" fill="#1C2D7B"/>
</svg>
