<svg width="24" height="24" viewBox="0 0 24 24" fill="none" xmlns="http://www.w3.org/2000/svg">
<path d="M21.0601 12.7275C20.8834 12.5264 20.786 12.2677 20.786 12C20.786 11.7322 20.8834 11.4736 21.0601 11.2724L22.4711 9.68502C22.6266 9.51159 22.7231 9.29343 22.7469 9.06168C22.7707 8.82993 22.7205 8.59668 22.6034 8.39531L20.3987 4.58118C20.2829 4.37999 20.1065 4.22052 19.8947 4.12556C19.6828 4.03049 19.4465 4.00481 19.2192 4.05206L17.1468 4.47093C16.8831 4.5254 16.6085 4.48152 16.375 4.34746C16.1414 4.21349 15.965 3.99852 15.8791 3.74343L15.2066 1.72612C15.1326 1.50712 14.9918 1.31699 14.8039 1.18246C14.616 1.04793 14.3904 0.975931 14.1594 0.976494H9.74999C9.50961 0.963931 9.27177 1.0304 9.07274 1.16577C8.87361 1.30115 8.72436 1.49793 8.64767 1.72612L8.03033 3.74343C7.94436 3.99852 7.76792 4.21349 7.53439 4.34746C7.30086 4.48152 7.02636 4.5254 6.76264 4.47093L4.63508 4.05206C4.41964 4.02159 4.19999 4.05562 4.00386 4.14974C3.80764 4.24387 3.64377 4.39396 3.53277 4.58118L1.32805 8.39531C1.20805 8.59443 1.15414 8.82637 1.17392 9.05803C1.1937 9.28968 1.28624 9.50915 1.4383 9.68502L2.83827 11.2724C3.01499 11.4736 3.11249 11.7322 3.11249 12C3.11249 12.2677 3.01499 12.5263 2.83827 12.7275L1.4383 14.3149C1.28624 14.4908 1.1937 14.7102 1.17392 14.942C1.15414 15.1735 1.20805 15.4055 1.32805 15.6047L3.53277 19.4188C3.64864 19.62 3.82499 19.7794 4.03677 19.8744C4.24864 19.9694 4.48499 19.9951 4.71224 19.9479L6.78467 19.5291C7.04839 19.4746 7.32289 19.5185 7.55642 19.6525C7.78995 19.7865 7.96639 20.0014 8.05236 20.2566L8.72483 22.2739C8.80152 22.5021 8.95077 22.6988 9.14989 22.8342C9.34892 22.9696 9.58677 23.0361 9.82714 23.0235H14.2366C14.4676 23.0241 14.6931 22.9521 14.881 22.8175C15.069 22.683 15.2098 22.4928 15.2838 22.2739L15.9562 20.2566C16.0422 20.0014 16.2185 19.7865 16.4522 19.6525C16.6856 19.5185 16.9602 19.4746 17.2239 19.5291L19.2964 19.9479C19.5237 19.9951 19.76 19.9694 19.9718 19.8744C20.1836 19.7794 20.36 19.62 20.4758 19.4188L22.6805 15.6047C22.7976 15.4032 22.8479 15.17 22.8241 14.9383C22.8003 14.7066 22.7038 14.4883 22.5483 14.3149L21.0601 12.7275ZM19.4176 14.2047L20.2995 15.1968L18.8885 17.644L17.5877 17.3795C16.7938 17.2172 15.968 17.352 15.2668 17.7584C14.5657 18.1649 14.0383 18.8145 13.7846 19.5842L13.3657 20.8188H10.5437L10.1468 19.5621C9.89314 18.7925 9.36571 18.1429 8.66464 17.7364C7.96358 17.33 7.13774 17.1952 6.34377 17.3574L5.04299 17.622L3.60992 15.1858L4.49183 14.1937C5.03417 13.5874 5.33399 12.8024 5.33399 11.9889C5.33399 11.1755 5.03417 10.3906 4.49183 9.78421L3.60992 8.79215L5.02095 6.36693L6.32174 6.63149C7.11561 6.79387 7.94155 6.65896 8.64261 6.25256C9.34367 5.84615 9.87111 5.19646 10.1248 4.42687L10.5437 3.18121H13.3657L13.7846 4.43784C14.0383 5.20743 14.5657 5.85712 15.2668 6.26353C15.968 6.67002 16.7938 6.80484 17.5877 6.64256L18.8885 6.37799L20.2995 8.82524L19.4176 9.81731C18.8814 10.4223 18.5854 11.2026 18.5854 12.011C18.5854 12.8194 18.8814 13.5997 19.4176 14.2047ZM11.9547 7.59056C11.0826 7.59056 10.2301 7.84921 9.50492 8.33371C8.77986 8.81821 8.21464 9.5069 7.88099 10.3126C7.54724 11.1184 7.45986 12.0049 7.63002 12.8602C7.80017 13.7155 8.22017 14.5012 8.83677 15.1178C9.45345 15.7345 10.2391 16.1545 11.0945 16.3246C11.9498 16.4948 12.8363 16.4075 13.6421 16.0737C14.4478 15.7401 15.1365 15.1748 15.621 14.4498C16.1055 13.7247 16.3641 12.8721 16.3641 12C16.3641 10.8305 15.8996 9.70893 15.0725 8.88206C14.2457 8.05509 13.1241 7.59056 11.9547 7.59056ZM11.9547 14.2047C11.5186 14.2047 11.0925 14.0753 10.7299 13.8331C10.3673 13.5909 10.0847 13.2465 9.9178 12.8437C9.75092 12.4408 9.70733 11.9976 9.79236 11.5699C9.87739 11.1423 10.0874 10.7494 10.3957 10.441C10.7041 10.1327 11.097 9.92268 11.5246 9.83765C11.9523 9.75252 12.3955 9.79631 12.7985 9.96309C13.2012 10.13 13.5456 10.4126 13.7878 10.7751C14.0301 11.1377 14.1594 11.5639 14.1594 12C14.1594 12.5847 13.9271 13.1454 13.5137 13.559C13.1002 13.9725 12.5394 14.2047 11.9547 14.2047Z" fill="#1C2D7B"/>
</svg>
