<svg width="20" height="22" viewBox="0 0 20 22" fill="none" xmlns="http://www.w3.org/2000/svg">
<path fill-rule="evenodd" clip-rule="evenodd" d="M14.2857 16.5C14.2857 17.6933 15.1651 18.6607 16.25 18.6607C17.3349 18.6607 18.2143 17.6933 18.2143 16.5C18.2143 15.3067 17.3349 14.3393 16.25 14.3393C15.1651 14.3393 14.2857 15.3067 14.2857 16.5ZM16.25 20.625C14.1789 20.625 12.5 18.7781 12.5 16.5C12.5 16.4318 12.5015 16.3639 12.5045 16.2963L6.54689 13.7478C5.86017 14.593 4.86157 15.125 3.75 15.125C1.67893 15.125 0 13.2782 0 11C0 8.72182 1.67893 6.875 3.75 6.875C4.86157 6.875 5.86017 7.40699 6.54689 8.25215L12.5045 5.70363C12.5015 5.63616 12.5 5.56828 12.5 5.5C12.5 3.22182 14.1789 1.375 16.25 1.375C18.321 1.375 20 3.22182 20 5.5C20 7.77818 18.321 9.625 16.25 9.625C15.1386 9.625 14.1402 9.09318 13.4535 8.24829L7.49554 10.797C7.4985 10.8642 7.5 10.9319 7.5 11C7.5 11.0681 7.4985 11.1358 7.49554 11.203L13.4535 13.7517C14.1402 12.9068 15.1386 12.375 16.25 12.375C18.321 12.375 20 14.2218 20 16.5C20 18.7781 18.321 20.625 16.25 20.625ZM16.25 7.66071C15.1651 7.66071 14.2857 6.69333 14.2857 5.5C14.2857 4.30667 15.1651 3.33929 16.25 3.33929C17.3349 3.33929 18.2143 4.30667 18.2143 5.5C18.2143 6.69333 17.3349 7.66071 16.25 7.66071ZM3.75 13.1607C2.66516 13.1607 1.78571 12.1933 1.78571 11C1.78571 9.80667 2.66516 8.83929 3.75 8.83929C4.83484 8.83929 5.71429 9.80667 5.71429 11C5.71429 12.1933 4.83484 13.1607 3.75 13.1607Z" fill="#525252"/>
</svg>
