<svg width="24" height="24" viewBox="0 0 24 24" fill="none" xmlns="http://www.w3.org/2000/svg">
<path d="M13.2179 3.70129L21.3123 17.7207C21.4357 17.9344 21.5007 18.1769 21.5007 18.4238C21.5007 18.6706 21.4357 18.9131 21.3123 19.1269C21.1889 19.3407 21.0114 19.5182 20.7976 19.6416C20.5838 19.7651 20.3413 19.83 20.0945 19.83H3.90573C3.65888 19.83 3.41639 19.7651 3.20261 19.6416C2.98884 19.5182 2.81132 19.3407 2.6879 19.1269C2.56448 18.9131 2.49951 18.6706 2.49951 18.4238C2.49951 18.1769 2.56449 17.9344 2.68791 17.7207L10.7823 3.70129C11.3232 2.76379 12.676 2.76379 13.2179 3.70129ZM12.0001 5.34192L4.7176 17.955H19.2826L12.0001 5.34192ZM12.0001 14.8125C12.2487 14.8125 12.4872 14.9113 12.663 15.0871C12.8388 15.2629 12.9376 15.5014 12.9376 15.75C12.9376 15.9987 12.8388 16.2371 12.663 16.413C12.4872 16.5888 12.2487 16.6875 12.0001 16.6875C11.7515 16.6875 11.513 16.5888 11.3372 16.413C11.1614 16.2371 11.0626 15.9987 11.0626 15.75C11.0626 15.5014 11.1614 15.2629 11.3372 15.0871C11.513 14.9113 11.7515 14.8125 12.0001 14.8125ZM12.0001 8.25004C12.2487 8.25004 12.4872 8.34882 12.663 8.52463C12.8388 8.70045 12.9376 8.9389 12.9376 9.18754V12.9375C12.9376 13.1862 12.8388 13.4246 12.663 13.6005C12.4872 13.7763 12.2487 13.875 12.0001 13.875C11.7515 13.875 11.513 13.7763 11.3372 13.6005C11.1614 13.4246 11.0626 13.1862 11.0626 12.9375V9.18754C11.0626 8.9389 11.1614 8.70045 11.3372 8.52463C11.513 8.34882 11.7515 8.25004 12.0001 8.25004Z" fill="#B9BED6"/>
</svg>
