<svg width="24" height="24" viewBox="0 0 24 24" fill="none" xmlns="http://www.w3.org/2000/svg">
<path d="M13.2179 3.70125L21.3123 17.7206C21.4357 17.9344 21.5007 18.1769 21.5007 18.4237C21.5007 18.6706 21.4357 18.9131 21.3123 19.1269C21.1889 19.3406 21.0114 19.5182 20.7976 19.6416C20.5838 19.765 20.3413 19.83 20.0945 19.83H3.90573C3.65888 19.83 3.41639 19.765 3.20261 19.6416C2.98884 19.5182 2.81132 19.3406 2.6879 19.1269C2.56448 18.9131 2.49951 18.6706 2.49951 18.4237C2.49951 18.1769 2.56449 17.9344 2.68791 17.7206L10.7823 3.70125C11.3232 2.76375 12.676 2.76375 13.2179 3.70125ZM12.0001 14.8125C11.7515 14.8125 11.513 14.9113 11.3372 15.0871C11.1614 15.2629 11.0626 15.5014 11.0626 15.75C11.0626 15.9986 11.1614 16.2371 11.3372 16.4129C11.513 16.5887 11.7515 16.6875 12.0001 16.6875C12.2487 16.6875 12.4872 16.5887 12.663 16.4129C12.8388 16.2371 12.9376 15.9986 12.9376 15.75C12.9376 15.5014 12.8388 15.2629 12.663 15.0871C12.4872 14.9113 12.2487 14.8125 12.0001 14.8125ZM12.0001 8.25C11.7705 8.25003 11.5488 8.33433 11.3773 8.48692C11.2057 8.6395 11.096 8.84976 11.0692 9.07781L11.0626 9.1875V12.9375C11.0629 13.1764 11.1544 13.4063 11.3184 13.58C11.4824 13.7538 11.7066 13.8583 11.9452 13.8723C12.1837 13.8864 12.4186 13.8087 12.6018 13.6554C12.7851 13.502 12.9028 13.2845 12.931 13.0472L12.9376 12.9375V9.1875C12.9376 8.93886 12.8388 8.7004 12.663 8.52459C12.4872 8.34877 12.2487 8.25 12.0001 8.25Z" fill="#0E1E66"/>
</svg>
