<svg width="24" height="24" viewBox="0 0 24 24" fill="none" xmlns="http://www.w3.org/2000/svg">
<path fill-rule="evenodd" clip-rule="evenodd" d="M7.99151 0.425148C8.91351 0.323098 10.153 0.239998 11.7448 0.239998C13.3367 0.239998 14.5761 0.323098 15.4981 0.425148C17.0588 0.597898 18.1444 1.77325 18.406 3.192H20.7843C21.4402 3.192 22.0963 3.75005 21.9488 4.5267C21.6862 5.90845 20.8302 7.01095 20.3295 7.56185C19.9782 7.94825 19.4874 8.1191 19.0139 8.1191H18.5942C18.6015 8.56635 18.6077 9.0386 18.6126 9.53635H20.7841C21.4399 9.53635 22.0961 10.0944 21.9485 10.8711C21.686 12.2528 20.83 13.3553 20.3292 13.9062C19.9779 14.2926 19.4871 14.4634 19.0137 14.4634H18.6126C18.6077 14.9616 18.6015 15.4342 18.5942 15.8817H20.7843C21.4402 15.8817 22.0963 16.4397 21.9488 17.2164C21.6862 18.5982 20.8302 19.7007 20.3295 20.2516C19.9782 20.638 19.4874 20.8088 19.0139 20.8088H18.4059C18.144 22.2272 17.0585 23.4021 15.498 23.5748C14.5761 23.6769 13.3367 23.76 11.7448 23.76C10.1529 23.76 8.91351 23.6769 7.99151 23.5748C6.43106 23.4021 5.34556 22.2272 5.08366 20.8088H4.98606C4.51266 20.8088 4.02181 20.638 3.67056 20.2516C3.16976 19.7007 2.31381 18.5982 2.05126 17.2164C1.90371 16.4397 2.55986 15.8817 3.21571 15.8817H4.89541C4.88811 15.4333 4.88186 14.9597 4.87701 14.4604C4.43826 14.436 3.99491 14.263 3.67056 13.9062C3.16976 13.3553 2.31381 12.2528 2.05126 10.8711C1.90371 10.0943 2.55986 9.53635 3.21571 9.53635H4.87706C4.88191 9.03775 4.88811 8.56485 4.89541 8.117C4.45066 8.09645 3.99946 7.92365 3.67056 7.56185C3.16976 7.01095 2.31381 5.9084 2.05126 4.5267C1.90371 3.75 2.55986 3.192 3.21571 3.192H5.08351C5.34516 1.77325 6.43076 0.597898 7.99151 0.425148ZM11.7448 2.2852C10.2241 2.2852 9.05991 2.3646 8.21656 2.45795C7.59021 2.5273 7.10421 3.03805 7.06961 3.7835C6.99451 5.3994 6.91061 8.08165 6.91061 12C6.91061 15.9183 6.99451 18.6006 7.06961 20.2165C7.10421 20.9619 7.59021 21.4727 8.21656 21.542C9.05991 21.6354 10.2241 21.7148 11.7448 21.7148C13.2655 21.7148 14.4297 21.6354 15.273 21.542C15.8994 21.4727 16.3854 20.9619 16.42 20.2165C16.4951 18.6006 16.579 15.9183 16.579 12C16.579 8.08165 16.4951 5.3994 16.42 3.7835C16.3854 3.03805 15.8994 2.5273 15.273 2.45795C14.4297 2.3646 13.2655 2.2852 11.7448 2.2852ZM13.9531 6.16685C13.9531 4.9475 12.9645 3.95895 11.7452 3.95895C10.5258 3.95895 9.53726 4.9475 9.53726 6.16685C9.53726 7.38625 10.5258 8.37475 11.7452 8.37475C12.9645 8.37475 13.9531 7.38625 13.9531 6.16685ZM13.9531 17.834C13.9531 16.6145 12.9645 15.626 11.7452 15.626C10.5258 15.626 9.53726 16.6145 9.53726 17.834C9.53726 19.0533 10.5258 20.0419 11.7452 20.0419C12.9645 20.0419 13.9531 19.0533 13.9531 17.834ZM11.745 9.792C12.9644 9.792 13.9529 10.7805 13.9529 11.9999C13.9529 13.2193 12.9644 14.2078 11.745 14.2078C10.5256 14.2078 9.53706 13.2193 9.53706 11.9999C9.53706 10.7805 10.5256 9.792 11.745 9.792Z" fill="#132164"/>
</svg>
