<svg width="24" height="24" viewBox="0 0 24 24" fill="none" xmlns="http://www.w3.org/2000/svg">
<path fill-rule="evenodd" clip-rule="evenodd" d="M10.5938 4.5C10.2697 4.49989 9.95555 4.6117 9.70444 4.81652C9.45332 5.02134 9.28065 5.3066 9.21563 5.62406C9.19106 5.74471 9.14298 5.85935 9.07412 5.96142C9.00525 6.06348 8.91696 6.15099 8.81428 6.21894C8.7116 6.28688 8.59654 6.33394 8.47567 6.35742C8.3548 6.3809 8.2305 6.38034 8.10984 6.35578C7.98919 6.33122 7.87456 6.28313 7.77249 6.21427C7.67042 6.14541 7.58292 6.05712 7.51497 5.95443C7.44702 5.85175 7.39997 5.73669 7.37649 5.61583C7.35301 5.49496 7.35356 5.37065 7.37812 5.25C7.50229 4.64171 7.79648 4.08113 8.22652 3.63336C8.65657 3.1856 9.20482 2.86902 9.8076 2.7204C10.4104 2.57179 11.043 2.59723 11.6319 2.79377C12.2208 2.99031 12.7418 3.34989 13.1345 3.83075C13.5272 4.3116 13.7754 4.894 13.8504 5.51029C13.9253 6.12659 13.8238 6.75149 13.5578 7.31242C13.2917 7.87336 12.872 8.3473 12.3473 8.67921C11.8226 9.01112 11.2146 9.18737 10.5938 9.1875H5.4375C5.18886 9.1875 4.9504 9.08873 4.77459 8.91291C4.59877 8.7371 4.5 8.49864 4.5 8.25C4.5 8.00136 4.59877 7.7629 4.77459 7.58709C4.9504 7.41127 5.18886 7.3125 5.4375 7.3125H10.5938C10.9667 7.3125 11.3244 7.16434 11.5881 6.90062C11.8518 6.6369 12 6.27921 12 5.90625C12 5.53329 11.8518 5.1756 11.5881 4.91188C11.3244 4.64816 10.9667 4.5 10.5938 4.5ZM18.0938 8.25C17.7697 8.24989 17.4556 8.3617 17.2044 8.56652C16.9533 8.77134 16.7807 9.0566 16.7156 9.37406C16.6911 9.49471 16.6431 9.60936 16.5743 9.71145C16.5055 9.81354 16.4172 9.90108 16.3146 9.96907C16.212 10.0371 16.0969 10.0842 15.9761 10.1077C15.8553 10.1312 15.731 10.1308 15.6103 10.1063C15.4897 10.0818 15.375 10.0337 15.2729 9.96492C15.1708 9.89611 15.0833 9.80787 15.0153 9.70524C14.9473 9.6026 14.9002 9.48757 14.8767 9.36673C14.8531 9.24589 14.8536 9.12159 14.8781 9.00094C15.0021 8.39256 15.2962 7.83186 15.7262 7.38395C16.1561 6.93604 16.7043 6.61932 17.3071 6.47056C17.9099 6.32181 18.5426 6.34714 19.1315 6.5436C19.7205 6.74007 20.2417 7.0996 20.6345 7.58045C21.0272 8.0613 21.2755 8.64372 21.3505 9.26005C21.4255 9.87639 21.324 10.5014 21.058 11.0623C20.7919 11.6233 20.3722 12.0973 19.8475 12.4292C19.3227 12.7612 18.7146 12.9374 18.0938 12.9375H3.5625C3.31386 12.9375 3.0754 12.8387 2.89959 12.6629C2.72377 12.4871 2.625 12.2486 2.625 12C2.625 11.7514 2.72377 11.5129 2.89959 11.3371C3.0754 11.1613 3.31386 11.0625 3.5625 11.0625H18.0938C18.4667 11.0625 18.8244 10.9143 19.0881 10.6506C19.3518 10.3869 19.5 10.0292 19.5 9.65625C19.5 9.28329 19.3518 8.9256 19.0881 8.66188C18.8244 8.39816 18.4667 8.25 18.0938 8.25ZM12.9656 18.3759C13.019 18.6365 13.1452 18.8767 13.3296 19.0684C13.514 19.2602 13.749 19.3957 14.0073 19.4593C14.2656 19.5228 14.5367 19.5118 14.789 19.4275C15.0413 19.3432 15.2645 19.189 15.4327 18.983C15.6009 18.7769 15.7072 18.5273 15.7393 18.2632C15.7713 17.9991 15.7278 17.7314 15.6138 17.491C15.4998 17.2507 15.3199 17.0476 15.0951 16.9054C14.8703 16.7631 14.6098 16.6876 14.3438 16.6875H8.25C8.00136 16.6875 7.7629 16.5887 7.58709 16.4129C7.41127 16.2371 7.3125 15.9986 7.3125 15.75C7.3125 15.5014 7.41127 15.2629 7.58709 15.0871C7.7629 14.9113 8.00136 14.8125 8.25 14.8125H14.3438C14.9646 14.8126 15.5727 14.9888 16.0975 15.3208C16.6222 15.6527 17.0419 16.1267 17.308 16.6877C17.574 17.2486 17.6755 17.8736 17.6005 18.4899C17.5255 19.1063 17.2772 19.6887 16.8845 20.1696C16.4917 20.6504 15.9705 21.0099 15.3815 21.2064C14.7926 21.4029 14.1599 21.4282 13.5571 21.2794C12.9543 21.1307 12.4061 20.814 11.9762 20.3661C11.5462 19.9181 11.2521 19.3574 11.1281 18.7491C11.0786 18.5054 11.128 18.2521 11.2653 18.0448C11.4026 17.8375 11.6166 17.6932 11.8603 17.6437C12.104 17.5943 12.3573 17.6436 12.5646 17.7809C12.7719 17.9182 12.9161 18.1323 12.9656 18.3759Z" fill="#B9BED6"/>
</svg>
