<svg width="24" height="24" viewBox="0 0 24 24" fill="none" xmlns="http://www.w3.org/2000/svg">
<path d="M17.4763 4.52752C17.4217 3.37696 16.6227 2.4383 15.4771 2.31824C14.6312 2.22958 13.4832 2.15625 12 2.15625C10.5168 2.15625 9.36877 2.22958 8.52286 2.31824C7.37728 2.4383 6.57834 3.37696 6.52373 4.52752C6.4522 6.03403 6.375 8.4765 6.375 12C6.375 15.5235 6.4522 17.966 6.52373 19.4725C6.57834 20.623 7.37728 21.5617 8.52286 21.6817C9.36877 21.7704 10.5168 21.8438 12 21.8438C13.4832 21.8438 14.6312 21.7704 15.4771 21.6817C16.6227 21.5617 17.4217 20.623 17.4763 19.4725C17.5478 17.966 17.625 15.5235 17.625 12C17.625 8.4765 17.5478 6.03403 17.4763 4.52752Z" stroke="#B9BED6" stroke-width="1.5" stroke-linecap="round" stroke-linejoin="round"/>
<path d="M6.41653 16.2189C6.38278 16.2188 6.34865 16.2188 6.3142 16.2188C5.71308 16.2188 5.13512 16.2323 4.66541 16.2481C4.04548 16.269 3.55718 16.7867 3.69831 17.3908C3.83694 17.9841 4.05608 18.5171 4.23204 18.8881C4.39721 19.2364 4.72797 19.4563 5.11294 19.4754C5.38729 19.4891 5.77514 19.5 6.3142 19.5C6.38606 19.5 6.45637 19.4998 6.52514 19.4994C6.52462 19.4905 6.52416 19.4815 6.52373 19.4725" stroke="#B9BED6" stroke-width="1.5" stroke-linecap="round" stroke-linejoin="round"/>
<path d="M6.38264 10.125C6.36 10.125 6.33717 10.125 6.3142 10.125C5.71308 10.125 5.13512 10.1385 4.66541 10.1544C4.04548 10.1753 3.55718 10.693 3.69831 11.297C3.83694 11.8903 4.05608 12.4234 4.23204 12.7944C4.39721 13.1427 4.72797 13.3625 5.11294 13.3817C5.38729 13.3953 5.77514 13.4062 6.3142 13.4062C6.33605 13.4062 6.3577 13.4063 6.37922 13.4062" stroke="#B9BED6" stroke-width="1.5" stroke-linecap="round" stroke-linejoin="round"/>
<path d="M6.59564 4.03225C6.50465 4.0316 6.41081 4.03125 6.3142 4.03125C5.71308 4.03125 5.13512 4.04482 4.66541 4.06064C4.04548 4.08152 3.55718 4.59925 3.69831 5.20327C3.83694 5.79656 4.05608 6.32963 4.23204 6.70064C4.39721 7.04892 4.72797 7.26877 5.11294 7.28794C5.38729 7.30158 5.77514 7.3125 6.3142 7.3125C6.35226 7.3125 6.3899 7.31245 6.42708 7.31236" stroke="#B9BED6" stroke-width="1.5" stroke-linecap="round" stroke-linejoin="round"/>
<path d="M17.5835 16.2189C17.6172 16.2188 17.6512 16.2188 17.6856 16.2188C18.2868 16.2188 18.8647 16.2323 19.3345 16.2481C19.9544 16.269 20.4427 16.7867 20.3016 17.3908C20.1629 17.9841 19.9438 18.5171 19.7678 18.8881C19.6027 19.2364 19.2719 19.4563 18.887 19.4754C18.6126 19.4891 18.2248 19.5 17.6856 19.5C17.6139 19.5 17.5436 19.4998 17.4749 19.4994C17.4754 19.4905 17.4758 19.4815 17.4763 19.4725" stroke="#B9BED6" stroke-width="1.5" stroke-linecap="round" stroke-linejoin="round"/>
<path d="M17.6209 13.4062C17.6423 13.4063 17.664 13.4062 17.6858 13.4062C18.2248 13.4062 18.6127 13.3953 18.887 13.3817C19.272 13.3625 19.6028 13.1427 19.7679 12.7944C19.9439 12.4234 20.163 11.8903 20.3016 11.297C20.4428 10.693 19.9545 10.1753 19.3346 10.1544C18.8648 10.1385 18.2869 10.125 17.6858 10.125C17.6628 10.125 17.6401 10.125 17.6174 10.125" stroke="#B9BED6" stroke-width="1.5" stroke-linecap="round" stroke-linejoin="round"/>
<path d="M17.4045 4.03225C17.4955 4.0316 17.5893 4.03125 17.6859 4.03125C18.2871 4.03125 18.865 4.04482 19.3347 4.06064C19.9546 4.08152 20.4429 4.59925 20.3018 5.20327C20.1632 5.79656 19.944 6.32963 19.7681 6.70064C19.6029 7.04892 19.2721 7.26877 18.8871 7.28794C18.6128 7.30158 18.225 7.3125 17.6859 7.3125C17.6479 7.3125 17.6103 7.31245 17.5731 7.31236" stroke="#B9BED6" stroke-width="1.5" stroke-linecap="round" stroke-linejoin="round"/>
<path d="M13.4062 18.0938C13.4062 18.4667 13.2581 18.8244 12.9944 19.0881C12.7306 19.3518 12.373 19.5 12 19.5C11.627 19.5 11.2694 19.3518 11.0056 19.0881C10.7419 18.8244 10.5938 18.4667 10.5938 18.0938C10.5938 17.7208 10.7419 17.3631 11.0056 17.0994C11.2694 16.8357 11.627 16.6875 12 16.6875C12.373 16.6875 12.7306 16.8357 12.9944 17.0994C13.2581 17.3631 13.4062 17.7208 13.4062 18.0938Z" stroke="#B9BED6" stroke-width="1.5" stroke-linecap="round" stroke-linejoin="round"/>
<path d="M13.4062 12C13.4062 12.373 13.2581 12.7306 12.9944 12.9944C12.7306 13.2581 12.373 13.4062 12 13.4062C11.627 13.4062 11.2694 13.2581 11.0056 12.9944C10.7419 12.7306 10.5938 12.373 10.5938 12C10.5938 11.627 10.7419 11.2694 11.0056 11.0056C11.2694 10.7419 11.627 10.5938 12 10.5938C12.373 10.5938 12.7306 10.7419 12.9944 11.0056C13.2581 11.2694 13.4062 11.627 13.4062 12Z" stroke="#B9BED6" stroke-width="1.5" stroke-linecap="round" stroke-linejoin="round"/>
<path d="M13.4062 5.90625C13.4062 6.27921 13.2581 6.6369 12.9944 6.90062C12.7306 7.16434 12.373 7.3125 12 7.3125C11.627 7.3125 11.2694 7.16434 11.0056 6.90062C10.7419 6.6369 10.5938 6.27921 10.5938 5.90625C10.5938 5.53329 10.7419 5.1756 11.0056 4.91188C11.2694 4.64816 11.627 4.5 12 4.5C12.373 4.5 12.7306 4.64816 12.9944 4.91188C13.2581 5.1756 13.4062 5.53329 13.4062 5.90625Z" stroke="#B9BED6" stroke-width="1.5" stroke-linecap="round" stroke-linejoin="round"/>
</svg>
