<svg width="24" height="24" viewBox="0 0 24 24" fill="none" xmlns="http://www.w3.org/2000/svg">
<path fill-rule="evenodd" clip-rule="evenodd" d="M10.5938 4.96875C10.4113 4.96866 10.2327 5.02184 10.08 5.12176C9.92729 5.22168 9.80706 5.36399 9.73406 5.53125C9.66019 5.70053 9.55371 5.85361 9.42068 5.98173C9.28765 6.10986 9.13069 6.21053 8.95876 6.278C8.78682 6.34547 8.60329 6.37841 8.41862 6.37495C8.23396 6.37148 8.05178 6.33168 7.8825 6.25781C7.71322 6.18394 7.56014 6.07746 7.43201 5.94443C7.30389 5.8114 7.20322 5.65444 7.13575 5.48251C7.06828 5.31057 7.03534 5.12703 7.0388 4.94237C7.04227 4.75771 7.08207 4.57553 7.15594 4.40625C7.42636 3.78664 7.85925 3.25166 8.4088 2.85791C8.95836 2.46417 9.60413 2.22631 10.2778 2.16951C10.9515 2.11271 11.6279 2.23907 12.2357 2.53524C12.8434 2.8314 13.3597 3.28634 13.7301 3.85192C14.1005 4.4175 14.311 5.07268 14.3395 5.74813C14.368 6.42358 14.2134 7.09417 13.892 7.68895C13.5707 8.28372 13.0945 8.78055 12.5138 9.12686C11.9332 9.47318 11.2698 9.65609 10.5938 9.65625H5.4375C5.06454 9.65625 4.70685 9.50809 4.44313 9.24437C4.17941 8.98065 4.03125 8.62296 4.03125 8.25C4.03125 7.87704 4.17941 7.51935 4.44313 7.25563C4.70685 6.99191 5.06454 6.84375 5.4375 6.84375H10.5938C10.8424 6.84375 11.0808 6.74498 11.2567 6.56916C11.4325 6.39335 11.5312 6.15489 11.5312 5.90625C11.5312 5.65761 11.4325 5.41915 11.2567 5.24334C11.0808 5.06752 10.8424 4.96875 10.5938 4.96875ZM18.0938 8.71875C17.9113 8.71866 17.7327 8.77184 17.58 8.87176C17.4273 8.97168 17.3071 9.11399 17.2341 9.28125C17.0849 9.62313 16.806 9.89175 16.4588 10.028C16.2868 10.0955 16.1033 10.1284 15.9186 10.1249C15.734 10.1215 15.5518 10.0817 15.3825 10.0078C15.0406 9.85863 14.772 9.57974 14.6357 9.23251C14.5683 9.06057 14.5353 8.87704 14.5388 8.69237C14.5423 8.50771 14.5821 8.32553 14.6559 8.15625C14.9264 7.53664 15.3592 7.00166 15.9088 6.60791C16.4584 6.21417 17.1041 5.97631 17.7778 5.91951C18.4514 5.86271 19.1279 5.98907 19.7357 6.28524C20.3434 6.5814 20.8597 7.03634 21.2301 7.60192C21.6005 8.1675 21.811 8.82268 21.8395 9.49813C21.868 10.1736 21.7134 10.8442 21.392 11.4389C21.0707 12.0337 20.5945 12.5306 20.0138 12.8769C19.4332 13.2232 18.7698 13.4061 18.0938 13.4062H3.5625C3.18954 13.4062 2.83185 13.2581 2.56813 12.9944C2.30441 12.7306 2.15625 12.373 2.15625 12C2.15625 11.627 2.30441 11.2694 2.56813 11.0056C2.83185 10.7419 3.18954 10.5938 3.5625 10.5938H18.0938C18.3424 10.5938 18.5808 10.495 18.7567 10.3192C18.9325 10.1433 19.0312 9.90489 19.0312 9.65625C19.0312 9.40761 18.9325 9.16915 18.7567 8.99334C18.5808 8.81752 18.3424 8.71875 18.0938 8.71875ZM13.4841 18.4688C13.5517 18.6236 13.6599 18.7574 13.7973 18.8558C13.9346 18.9543 14.0961 19.0137 14.2645 19.0279C14.4329 19.0421 14.602 19.0106 14.7539 18.9365C14.9058 18.8625 15.0349 18.7488 15.1275 18.6074C15.2201 18.4661 15.2728 18.3023 15.28 18.1334C15.2871 17.9646 15.2485 17.7969 15.1682 17.6482C15.0879 17.4995 14.9688 17.3753 14.8237 17.2887C14.6786 17.2021 14.5128 17.1563 14.3438 17.1563H8.25C7.87704 17.1563 7.51935 17.0081 7.25563 16.7444C6.99191 16.4806 6.84375 16.123 6.84375 15.75C6.84375 15.377 6.99191 15.0194 7.25563 14.7556C7.51935 14.4919 7.87704 14.3438 8.25 14.3438H14.3438C15.0198 14.3437 15.6834 14.5265 16.2641 14.8727C16.8448 15.2189 17.3211 15.7157 17.6426 16.3104C17.9642 16.9052 18.1189 17.5758 18.0905 18.2513C18.0621 18.9268 17.8516 19.582 17.4813 20.1477C17.111 20.7133 16.5946 21.1684 15.9869 21.4646C15.3792 21.7608 14.7027 21.8873 14.029 21.8305C13.3553 21.7737 12.7094 21.5359 12.1598 21.1422C11.6102 20.7484 11.1773 20.2134 10.9069 19.5938C10.829 19.4239 10.7858 19.2403 10.7797 19.0535C10.7736 18.8668 10.8048 18.6807 10.8714 18.5062C10.9381 18.3316 11.0388 18.1721 11.1678 18.0369C11.2968 17.9018 11.4514 17.7937 11.6226 17.7189C11.7938 17.6442 11.9782 17.6043 12.1651 17.6016C12.3519 17.5989 12.5373 17.6335 12.7106 17.7033C12.8839 17.7731 13.0416 17.8768 13.1744 18.0082C13.3072 18.1396 13.4125 18.2962 13.4841 18.4688Z" fill="#132164"/>
</svg>
