<svg width="341" height="88" viewBox="0 0 341 88" fill="none" xmlns="http://www.w3.org/2000/svg">
<mask id="mask0_1_6326" style="mask-type:luminance" maskUnits="userSpaceOnUse" x="24" y="0" width="42" height="39">
<path d="M24 0H65.1429V38.8572H24V0Z" fill="white"/>
</mask>
<g mask="url(#mask0_1_6326)">
<mask id="mask1_1_6326" style="mask-type:luminance" maskUnits="userSpaceOnUse" x="24" y="-3" width="41" height="42">
<path d="M64.6384 18.0714L44.5313 38.1785L24.4197 18.0714L44.5313 -2.04022L64.6384 18.0714Z" fill="white"/>
</mask>
<g mask="url(#mask1_1_6326)">
<mask id="mask2_1_6326" style="mask-type:luminance" maskUnits="userSpaceOnUse" x="24" y="-3" width="41" height="42">
<path d="M64.6384 18.0714L44.5313 38.1785L24.4197 18.0714L44.5313 -2.04022L64.6384 18.0714Z" fill="white"/>
</mask>
<g mask="url(#mask2_1_6326)">
<path d="M44.3795 38.3304L24.1384 18.0893L28.1875 14.0402L41.5134 27.3616V0.674133H47.2456L47.2411 27.3616L60.567 14.0402L64.6206 18.0893L44.3795 38.3304Z" fill="#66CCFF"/>
</g>
</g>
</g>
<mask id="mask3_1_6326" style="mask-type:luminance" maskUnits="userSpaceOnUse" x="0" y="24" width="39" height="42">
<path d="M0 24H38.8572V65.1429H0V24Z" fill="white"/>
</mask>
<g mask="url(#mask3_1_6326)">
<mask id="mask4_1_6326" style="mask-type:luminance" maskUnits="userSpaceOnUse" x="-2" y="24" width="41" height="41">
<path d="M17.8394 24.2812L38.6296 43.6875L19.2188 64.4732L-1.56689 45.067L17.8394 24.2812Z" fill="white"/>
</mask>
<g mask="url(#mask4_1_6326)">
<mask id="mask5_1_6326" style="mask-type:luminance" maskUnits="userSpaceOnUse" x="-2" y="24" width="41" height="41">
<path d="M17.8394 24.2812L38.6296 43.6875L19.2188 64.4732L-1.56689 45.067L17.8394 24.2812Z" fill="white"/>
</mask>
<g mask="url(#mask5_1_6326)">
<path d="M38.7856 43.8348L19.2499 64.7545L15.0624 60.8438L27.9195 47.0714L1.2499 47.9866L1.05347 42.2634L27.7231 41.3482L13.9508 28.4866L17.8615 24.2991L38.7856 43.8348Z" fill="#66CC66"/>
</g>
</g>
</g>
<mask id="mask6_1_6326" style="mask-type:luminance" maskUnits="userSpaceOnUse" x="49" y="22" width="39" height="42">
<path d="M49.1428 22.8571H88V64H49.1428V22.8571Z" fill="white"/>
</mask>
<g mask="url(#mask6_1_6326)">
<mask id="mask7_1_6326" style="mask-type:luminance" maskUnits="userSpaceOnUse" x="50" y="23" width="41" height="41">
<path d="M70.5893 23.6652L90.3393 44.1295L69.875 63.8795L50.125 43.4152L70.5893 23.6652Z" fill="white"/>
</mask>
<g mask="url(#mask7_1_6326)">
<mask id="mask8_1_6326" style="mask-type:luminance" maskUnits="userSpaceOnUse" x="50" y="23" width="41" height="42">
<path d="M69.8706 64.183L50.1206 43.7188L70.5849 23.9688L90.3349 44.433L69.8706 64.183Z" fill="white"/>
</mask>
<g mask="url(#mask8_1_6326)">
<path d="M49.9731 43.5669L70.5669 23.6875L74.549 27.808L60.9865 40.8973L87.6741 41.3705L87.5714 47.0982L60.8883 46.625L73.9732 60.183L69.8526 64.1607L49.9731 43.5669Z" fill="#006D6D"/>
</g>
</g>
</g>
<mask id="mask9_1_6326" style="mask-type:luminance" maskUnits="userSpaceOnUse" x="22" y="49" width="42" height="39">
<path d="M22.8572 49.1429H64V88H22.8572V49.1429Z" fill="white"/>
</mask>
<g mask="url(#mask9_1_6326)">
<mask id="mask10_1_6326" style="mask-type:luminance" maskUnits="userSpaceOnUse" x="23" y="49" width="41" height="41">
<path d="M63.8527 70.4866L43.0402 89.8706L23.6562 69.0581L44.4688 49.6741L63.8527 70.4866Z" fill="white"/>
</mask>
<g mask="url(#mask10_1_6326)">
<mask id="mask11_1_6326" style="mask-type:luminance" maskUnits="userSpaceOnUse" x="23" y="49" width="41" height="41">
<path d="M23.3574 69.0447L44.1699 49.6652L63.5494 70.4777L42.7369 89.8572L23.3574 69.0447Z" fill="white"/>
</mask>
<g mask="url(#mask11_1_6326)">
<path d="M44.3212 49.5179L63.8301 70.4643L59.6382 74.3705L46.7944 60.5804L45.848 87.2545L40.1203 87.0491L41.0712 60.375L27.281 73.2188L23.3748 69.0268L44.3212 49.5179Z" fill="#FF9933"/>
</g>
</g>
</g>
<mask id="mask12_1_6326" style="mask-type:luminance" maskUnits="userSpaceOnUse" x="38" y="38" width="12" height="12">
<path d="M38.79 38.3348H49.9731V49.5179H38.79V38.3348Z" fill="white"/>
</mask>
<g mask="url(#mask12_1_6326)">
<mask id="mask13_1_6326" style="mask-type:luminance" maskUnits="userSpaceOnUse" x="38" y="38" width="12" height="12">
<path d="M44.3793 38.3348L49.9731 43.9286L44.3793 49.5179L38.79 43.9286L44.3793 38.3348Z" fill="white"/>
</mask>
<g mask="url(#mask13_1_6326)">
<path d="M38.79 38.3348H49.9731V49.5179H38.79V38.3348Z" fill="#FF5757"/>
</g>
</g>
<path d="M134.139 52.934V59.9162H105.032V22.309H133.442V29.2912H113.675V37.4697H131.139V44.2376H113.675V52.934H134.139Z" fill="#1C2D7B"/>
<path d="M154.764 45.1483L149.711 50.4162V59.9162H141.068V22.309H149.711V39.8805L166.353 22.309H176.032L160.461 39.0769L176.943 59.9162H166.782L154.764 45.1483Z" fill="#1C2D7B"/>
<path d="M205.56 51.8626H188.113L184.774 59.9162H175.863L192.613 22.309H201.221L218.024 59.9162H208.899L205.56 51.8626ZM202.828 45.2555L196.863 30.8626L190.899 45.2555H202.828Z" fill="#1C2D7B"/>
<path d="M247.341 40.5233H255.305V55.7733C253.256 57.3225 250.886 58.5055 248.198 59.3269C245.52 60.1483 242.814 60.5591 240.091 60.5591C236.185 60.5591 232.671 59.7287 229.555 58.0591C226.448 56.3939 224.006 54.0858 222.234 51.1305C220.457 48.1796 219.573 44.8403 219.573 41.1126C219.573 37.3894 220.457 34.0501 222.234 31.0948C224.006 28.1439 226.47 25.8358 229.627 24.1662C232.778 22.501 236.323 21.6662 240.252 21.6662C243.546 21.6662 246.537 22.2287 249.216 23.3448C251.903 24.4519 254.167 26.0591 256.002 28.1662L250.412 33.3269C247.72 30.4966 244.475 29.0769 240.68 29.0769C238.287 29.0769 236.153 29.5858 234.287 30.5948C232.43 31.5948 230.984 33.0144 229.948 34.8448C228.912 36.6662 228.395 38.7555 228.395 41.1126C228.395 43.4475 228.912 45.5323 229.948 47.3626C230.984 49.1841 232.421 50.6082 234.27 51.6305C236.113 52.6439 238.216 53.1483 240.573 53.1483C243.082 53.1483 245.341 52.6126 247.341 51.5412V40.5233Z" fill="#1C2D7B"/>
<path d="M287.302 59.9162L280.052 49.434H272.052V59.9162H263.355V22.309H279.623C282.953 22.309 285.846 22.8715 288.302 23.9876C290.752 25.0947 292.641 26.6751 293.962 28.7197C295.293 30.7555 295.962 33.1662 295.962 35.9519C295.962 38.751 295.288 41.1617 293.944 43.184C292.596 45.2108 290.685 46.7555 288.212 47.8269L296.659 59.9162H287.302ZM287.141 35.9519C287.141 33.8447 286.462 32.2287 285.105 31.0947C283.748 29.9653 281.757 29.3983 279.141 29.3983H272.052V42.5055H279.141C281.757 42.5055 283.748 41.934 285.105 40.7912C286.462 39.6483 287.141 38.0367 287.141 35.9519Z" fill="#1C2D7B"/>
<path d="M327.578 51.8626H310.132L306.793 59.9162H297.882L314.632 22.309H323.239L340.043 59.9162H330.918L327.578 51.8626ZM324.846 45.2555L318.882 30.8626L312.918 45.2555H324.846Z" fill="#1C2D7B"/>
<path d="M110.686 68.6675C112.007 68.6675 113.011 69.0157 113.703 69.7032C114.404 70.3818 114.757 71.3997 114.757 72.7568C114.757 74.105 114.404 75.1229 113.703 75.8104C113.011 76.4889 112.007 76.8282 110.686 76.8282H107.739V68.6675H110.686ZM110.578 75.4711C111.422 75.4711 112.052 75.2568 112.471 74.8282C112.886 74.3997 113.096 73.7122 113.096 72.7568C113.096 71.7925 112.886 71.0961 112.471 70.6675C112.052 70.2389 111.422 70.0247 110.578 70.0247H109.364V75.4711H110.578Z" fill="black"/>
<path d="M127.013 74.0961H123.049C123.094 74.6318 123.25 75.0247 123.513 75.2747C123.772 75.5157 124.125 75.6318 124.567 75.6318C124.924 75.6318 125.21 75.5693 125.424 75.4354C125.647 75.3059 125.826 75.105 125.96 74.8282H126.085L127.103 75.4889C126.897 75.9309 126.594 76.288 126.192 76.5604C125.786 76.8238 125.246 76.9532 124.567 76.9532C123.933 76.9532 123.388 76.8327 122.924 76.5961C122.46 76.3461 122.103 75.9845 121.853 75.5068C121.603 75.0336 121.478 74.4488 121.478 73.7568C121.478 73.0559 121.607 72.4666 121.871 71.9889C122.13 71.5023 122.487 71.1452 122.942 70.9175C123.393 70.6809 123.897 70.5604 124.46 70.5604C125.326 70.5604 125.996 70.7925 126.46 71.2568C126.924 71.7122 127.156 72.3818 127.156 73.2747C127.156 73.5961 127.143 73.8461 127.121 74.0247L127.013 74.0961ZM125.674 73.0961C125.661 72.6318 125.554 72.2925 125.353 72.0782C125.147 71.8639 124.853 71.7568 124.46 71.7568C123.683 71.7568 123.228 72.2032 123.085 73.0961H125.674Z" fill="black"/>
<path d="M136.722 76.9532C136.124 76.9532 135.597 76.8282 135.133 76.5782C134.677 76.3282 134.32 75.9666 134.061 75.4889C133.811 75.0023 133.686 74.4264 133.686 73.7568C133.686 73.0782 133.811 72.5023 134.061 72.0246C134.32 71.538 134.677 71.1764 135.133 70.9354C135.583 70.6854 136.101 70.5604 136.686 70.5604C137.981 70.5604 138.816 71.0336 139.186 71.9711L138.133 72.7211H138.008C137.887 72.4354 137.722 72.2211 137.508 72.0782C137.302 71.9354 137.03 71.8639 136.686 71.8639C136.244 71.8639 135.9 72.0202 135.65 72.3282C135.4 72.6407 135.275 73.1139 135.275 73.7568C135.275 74.3907 135.4 74.8595 135.65 75.1675C135.909 75.48 136.267 75.6318 136.722 75.6318C137.052 75.6318 137.333 75.5425 137.561 75.3639C137.798 75.1854 137.972 74.9264 138.079 74.5782H138.186L139.293 75.1675C139.137 75.6943 138.847 76.1229 138.418 76.4532C137.999 76.788 137.436 76.9532 136.722 76.9532Z" fill="black"/>
<path d="M146.656 69.9354C146.37 69.9354 146.138 69.855 145.959 69.6854C145.79 69.5202 145.709 69.3015 145.709 69.0247C145.709 68.7657 145.79 68.5515 145.959 68.3818C146.138 68.2032 146.37 68.114 146.656 68.114C146.834 68.114 146.995 68.1586 147.138 68.239C147.29 68.3238 147.406 68.4309 147.477 68.5604C147.558 68.6943 147.602 68.8461 147.602 69.0247C147.602 69.2032 147.558 69.364 147.477 69.5068C147.406 69.6407 147.29 69.7479 147.138 69.8282C146.995 69.8997 146.834 69.9354 146.656 69.9354ZM145.888 76.8282V70.6675H147.424V76.8282H145.888Z" fill="black"/>
<path d="M156.704 76.9532C156.284 76.9532 155.9 76.9041 155.543 76.8104C155.195 76.7032 154.9 76.5693 154.65 76.3997C154.409 76.2211 154.23 76.0202 154.114 75.7925L154.971 74.8639H155.079C155.293 75.1407 155.534 75.3461 155.811 75.4889C156.083 75.6318 156.387 75.7032 156.721 75.7032C157.016 75.7032 157.244 75.6497 157.4 75.5425C157.552 75.4264 157.632 75.2702 157.632 75.0782C157.632 74.913 157.57 74.7836 157.454 74.6854C157.346 74.5782 157.172 74.4979 156.936 74.4354L156.114 74.2389C155.507 74.0872 155.061 73.8595 154.775 73.5604C154.498 73.2657 154.364 72.8818 154.364 72.4175C154.364 72.038 154.458 71.7122 154.65 71.4354C154.851 71.1496 155.123 70.9354 155.471 70.7925C155.829 70.6407 156.244 70.5604 156.721 70.5604C157.266 70.5604 157.726 70.6452 158.096 70.8104C158.462 70.9666 158.748 71.1764 158.954 71.4354L158.132 72.3282H158.007C157.837 72.1407 157.65 72.0023 157.436 71.9175C157.221 71.8238 156.98 71.7746 156.721 71.7746C156.114 71.7746 155.811 71.9666 155.811 72.3461C155.811 72.5023 155.864 72.6318 155.971 72.7389C156.087 72.8371 156.293 72.913 156.579 72.9711L157.329 73.1497C157.958 73.2836 158.418 73.4979 158.704 73.7925C158.989 74.0916 159.132 74.4889 159.132 74.9889C159.132 75.3729 159.034 75.7122 158.846 76.0068C158.654 76.3059 158.373 76.538 158.007 76.7032C157.637 76.8684 157.204 76.9532 156.704 76.9532Z" fill="black"/>
<path d="M166.682 69.9354C166.396 69.9354 166.164 69.855 165.986 69.6854C165.816 69.5202 165.736 69.3015 165.736 69.0247C165.736 68.7657 165.816 68.5515 165.986 68.3818C166.164 68.2032 166.396 68.114 166.682 68.114C166.861 68.114 167.021 68.1586 167.164 68.239C167.316 68.3238 167.432 68.4309 167.504 68.5604C167.584 68.6943 167.629 68.8461 167.629 69.0247C167.629 69.2032 167.584 69.364 167.504 69.5068C167.432 69.6407 167.316 69.7479 167.164 69.8282C167.021 69.8997 166.861 69.9354 166.682 69.9354ZM165.914 76.8282V70.6675H167.45V76.8282H165.914Z" fill="black"/>
<path d="M177.426 76.9532C176.828 76.9532 176.301 76.8282 175.837 76.5782C175.382 76.3282 175.033 75.9666 174.783 75.4889C174.533 75.0157 174.408 74.4354 174.408 73.7568C174.408 73.0782 174.533 72.5023 174.783 72.0246C175.033 71.538 175.382 71.1764 175.837 70.9354C176.301 70.6854 176.828 70.5604 177.426 70.5604C178.033 70.5604 178.56 70.6854 179.016 70.9354C179.48 71.1764 179.837 71.538 180.087 72.0246C180.337 72.5023 180.462 73.0782 180.462 73.7568C180.462 74.4354 180.337 75.0157 180.087 75.4889C179.837 75.9666 179.48 76.3282 179.016 76.5782C178.56 76.8282 178.033 76.9532 177.426 76.9532ZM177.426 75.6318C178.391 75.6318 178.873 75.0068 178.873 73.7568C178.873 73.105 178.748 72.6273 178.498 72.3282C178.248 72.0202 177.891 71.8639 177.426 71.8639C176.471 71.8639 175.998 72.4979 175.998 73.7568C175.998 75.0068 176.471 75.6318 177.426 75.6318Z" fill="black"/>
<path d="M187.419 76.8282V70.6675H188.901V71.5782L189.008 71.5961C189.401 70.9086 190.026 70.5604 190.883 70.5604C191.584 70.5604 192.102 70.7568 192.437 71.1496C192.767 71.5336 192.937 72.0916 192.937 72.8282V76.8282H191.401V73.0247C191.401 72.6095 191.316 72.3104 191.151 72.1318C190.981 71.9532 190.722 71.8639 190.365 71.8639C189.923 71.8639 189.58 72.0068 189.33 72.2925C189.08 72.5782 188.955 73.0336 188.955 73.6497V76.8282H187.419Z" fill="black"/>
<path d="M210.146 76.8282H208.521V68.6675H210.146V76.8282Z" fill="black"/>
<path d="M217.617 76.8282V70.6675H219.099V71.5782L219.207 71.5961C219.599 70.9086 220.224 70.5604 221.082 70.5604C221.782 70.5604 222.3 70.7568 222.635 71.1496C222.966 71.5336 223.135 72.0916 223.135 72.8282V76.8282H221.599V73.0247C221.599 72.6095 221.515 72.3104 221.349 72.1318C221.18 71.9532 220.921 71.8639 220.564 71.8639C220.122 71.8639 219.778 72.0068 219.528 72.2925C219.278 72.5782 219.153 73.0336 219.153 73.6497V76.8282H217.617Z" fill="black"/>
<path d="M233.701 75.364L234.094 76.5068C233.925 76.6407 233.719 76.7479 233.469 76.8282C233.219 76.9086 232.934 76.9532 232.612 76.9532C231.943 76.9532 231.438 76.7747 231.094 76.4175C230.746 76.0515 230.576 75.5157 230.576 74.8104V71.8997H229.63V70.6675H230.576V69.4711L232.112 69.2211V70.6675H233.862V71.8997H232.112V74.7032C232.112 75.0157 232.175 75.239 232.309 75.3818C232.438 75.5157 232.621 75.5782 232.862 75.5782C233.134 75.5782 233.371 75.5068 233.576 75.364H233.701Z" fill="black"/>
<path d="M245.841 74.0961H241.877C241.922 74.6318 242.078 75.0247 242.341 75.2747C242.6 75.5157 242.953 75.6318 243.395 75.6318C243.752 75.6318 244.038 75.5693 244.252 75.4354C244.475 75.3059 244.654 75.105 244.788 74.8282H244.913L245.931 75.4889C245.725 75.9309 245.422 76.288 245.02 76.5604C244.614 76.8238 244.074 76.9532 243.395 76.9532C242.761 76.9532 242.216 76.8327 241.752 76.5961C241.288 76.3461 240.931 75.9845 240.681 75.5068C240.431 75.0336 240.306 74.4488 240.306 73.7568C240.306 73.0559 240.435 72.4666 240.699 71.9889C240.957 71.5023 241.315 71.1452 241.77 70.9175C242.221 70.6809 242.725 70.5604 243.288 70.5604C244.154 70.5604 244.824 70.7925 245.288 71.2568C245.752 71.7122 245.984 72.3818 245.984 73.2747C245.984 73.5961 245.971 73.8461 245.949 74.0247L245.841 74.0961ZM244.502 73.0961C244.489 72.6318 244.382 72.2925 244.181 72.0782C243.975 71.8639 243.681 71.7568 243.288 71.7568C242.511 71.7568 242.056 72.2032 241.913 73.0961H244.502Z" fill="black"/>
<path d="M254.514 76.9532C253.965 76.9532 253.54 76.8059 253.246 76.5068C252.96 76.1988 252.817 75.7389 252.817 75.1318V68.2032H254.353V75.0782C254.353 75.4488 254.505 75.6318 254.817 75.6318C254.911 75.6318 255.005 75.6229 255.103 75.5961L255.192 75.6139L255.317 76.7925C255.232 76.8371 255.121 76.8729 254.978 76.8996C254.844 76.9354 254.692 76.9532 254.514 76.9532Z" fill="black"/>
<path d="M263.57 76.9532C263.021 76.9532 262.597 76.8059 262.302 76.5068C262.017 76.1988 261.874 75.7389 261.874 75.1318V68.2032H263.41V75.0782C263.41 75.4488 263.561 75.6318 263.874 75.6318C263.968 75.6318 264.061 75.6229 264.16 75.5961L264.249 75.6139L264.374 76.7925C264.289 76.8371 264.177 76.8729 264.035 76.8996C263.901 76.9354 263.749 76.9532 263.57 76.9532Z" fill="black"/>
<path d="M271.734 69.9354C271.449 69.9354 271.216 69.855 271.038 69.6854C270.868 69.5202 270.788 69.3015 270.788 69.0247C270.788 68.7657 270.868 68.5515 271.038 68.3818C271.216 68.2032 271.449 68.114 271.734 68.114C271.913 68.114 272.074 68.1586 272.216 68.239C272.368 68.3238 272.484 68.4309 272.556 68.5604C272.636 68.6943 272.681 68.8461 272.681 69.0247C272.681 69.2032 272.636 69.364 272.556 69.5068C272.484 69.6407 272.368 69.7479 272.216 69.8282C272.074 69.8997 271.913 69.9354 271.734 69.9354ZM270.966 76.8282V70.6675H272.502V76.8282H270.966Z" fill="black"/>
<path d="M282.103 79.4354C281.076 79.4354 280.322 79.2836 279.835 78.9889C279.358 78.6898 279.121 78.2791 279.121 77.7568C279.121 77.422 279.219 77.1541 279.425 76.9532C279.639 76.7523 279.933 76.6139 280.317 76.5425V76.4175C280.112 76.3014 279.965 76.163 279.871 76.0068C279.786 75.855 279.746 75.6675 279.746 75.4532C279.746 74.9666 280.067 74.6318 280.71 74.4532V74.3461C280.375 74.1586 280.125 73.9264 279.96 73.6497C279.791 73.3639 279.71 73.0202 279.71 72.6139C279.71 72.2122 279.8 71.855 279.978 71.5425C280.166 71.2345 280.442 70.9979 280.8 70.8282C281.166 70.6497 281.608 70.5604 282.121 70.5604C282.63 70.5604 283.036 70.6497 283.335 70.8282C283.523 70.5559 283.639 70.2345 283.675 69.8639L283.782 69.7925L284.907 70.0782C284.871 70.3639 284.782 70.6095 284.639 70.8104C284.505 71.0157 284.291 71.1943 283.996 71.3461V71.4711C284.34 71.7702 284.514 72.1943 284.514 72.7389C284.514 73.1229 284.416 73.4666 284.228 73.7747C284.05 74.0738 283.773 74.3104 283.407 74.4889C283.05 74.6586 282.621 74.7389 282.121 74.7389H281.889C281.733 74.73 281.625 74.7211 281.567 74.7211C281.425 74.7211 281.308 74.7657 281.228 74.8461C281.157 74.9175 281.121 75.0157 281.121 75.1318C281.121 75.2657 281.166 75.3639 281.264 75.4354C281.371 75.5068 281.523 75.5514 281.728 75.5604L283.103 75.6139C284.469 75.6497 285.157 76.2345 285.157 77.3639C285.157 77.7568 285.054 78.105 284.853 78.4175C284.648 78.7389 284.317 78.9889 283.853 79.1675C283.398 79.3461 282.817 79.4354 282.103 79.4354ZM282.121 73.6497C282.416 73.6497 282.648 73.5693 282.817 73.3997C282.983 73.2211 283.067 72.9711 283.067 72.6497C283.067 72.3282 282.983 72.0872 282.817 71.9175C282.648 71.7389 282.416 71.6497 282.121 71.6497C281.808 71.6497 281.572 71.7389 281.407 71.9175C281.25 72.0872 281.175 72.3282 281.175 72.6497C281.175 72.9711 281.25 73.2211 281.407 73.3997C281.572 73.5693 281.808 73.6497 282.121 73.6497ZM282.103 78.3104C282.625 78.3104 283.005 78.23 283.246 78.0782C283.483 77.9354 283.603 77.7434 283.603 77.5068C283.603 77.3148 283.541 77.172 283.425 77.0782C283.304 76.9934 283.108 76.9443 282.835 76.9354L281.621 76.8818C281.585 76.8818 281.55 76.8818 281.514 76.8818C281.478 76.8818 281.442 76.8818 281.407 76.8818C281.143 76.8818 280.942 76.9354 280.8 77.0425C280.666 77.1497 280.603 77.3014 280.603 77.5068C280.603 77.7657 280.728 77.9622 280.978 78.0961C281.228 78.2389 281.603 78.3104 282.103 78.3104Z" fill="black"/>
<path d="M296.914 74.0961H292.95C292.994 74.6318 293.151 75.0247 293.414 75.2747C293.673 75.5157 294.026 75.6318 294.468 75.6318C294.825 75.6318 295.11 75.5693 295.325 75.4354C295.548 75.3059 295.727 75.105 295.86 74.8282H295.985L297.003 75.4889C296.798 75.9309 296.494 76.288 296.093 76.5604C295.686 76.8238 295.146 76.9532 294.468 76.9532C293.834 76.9532 293.289 76.8327 292.825 76.5961C292.36 76.3461 292.003 75.9845 291.753 75.5068C291.503 75.0336 291.378 74.4488 291.378 73.7568C291.378 73.0559 291.508 72.4666 291.771 71.9889C292.03 71.5023 292.387 71.1452 292.843 70.9175C293.293 70.6809 293.798 70.5604 294.36 70.5604C295.227 70.5604 295.896 70.7925 296.36 71.2568C296.825 71.7122 297.057 72.3818 297.057 73.2747C297.057 73.5961 297.043 73.8461 297.021 74.0247L296.914 74.0961ZM295.575 73.0961C295.561 72.6318 295.454 72.2925 295.253 72.0782C295.048 71.8639 294.753 71.7568 294.36 71.7568C293.584 71.7568 293.128 72.2032 292.985 73.0961H295.575Z" fill="black"/>
<path d="M303.926 76.8282V70.6675H305.409V71.5782L305.516 71.5961C305.909 70.9086 306.534 70.5604 307.391 70.5604C308.092 70.5604 308.609 70.7568 308.944 71.1496C309.275 71.5336 309.444 72.0916 309.444 72.8282V76.8282H307.909V73.0247C307.909 72.6095 307.824 72.3104 307.659 72.1318C307.489 71.9532 307.23 71.8639 306.873 71.8639C306.431 71.8639 306.087 72.0068 305.837 72.2925C305.587 72.5782 305.462 73.0336 305.462 73.6497V76.8282H303.926Z" fill="black"/>
<path d="M319.35 76.9532C318.751 76.9532 318.225 76.8282 317.76 76.5782C317.305 76.3282 316.948 75.9666 316.689 75.4889C316.439 75.0023 316.314 74.4264 316.314 73.7568C316.314 73.0782 316.439 72.5023 316.689 72.0246C316.948 71.538 317.305 71.1764 317.76 70.9354C318.211 70.6854 318.729 70.5604 319.314 70.5604C320.609 70.5604 321.443 71.0336 321.814 71.9711L320.76 72.7211H320.635C320.515 72.4354 320.35 72.2211 320.135 72.0782C319.93 71.9354 319.658 71.8639 319.314 71.8639C318.872 71.8639 318.528 72.0202 318.278 72.3282C318.028 72.6407 317.903 73.1139 317.903 73.7568C317.903 74.3907 318.028 74.8595 318.278 75.1675C318.537 75.48 318.894 75.6318 319.35 75.6318C319.68 75.6318 319.961 75.5425 320.189 75.3639C320.426 75.1854 320.6 74.9264 320.707 74.5782H320.814L321.921 75.1675C321.765 75.6943 321.475 76.1229 321.046 76.4532C320.626 76.788 320.064 76.9532 319.35 76.9532Z" fill="black"/>
<path d="M333.712 74.0961H329.748C329.792 74.6318 329.948 75.0247 330.212 75.2747C330.471 75.5157 330.823 75.6318 331.265 75.6318C331.623 75.6318 331.908 75.5693 332.123 75.4354C332.346 75.3059 332.524 75.105 332.658 74.8282H332.783L333.801 75.4889C333.596 75.9309 333.292 76.288 332.89 76.5604C332.484 76.8238 331.944 76.9532 331.265 76.9532C330.632 76.9532 330.087 76.8327 329.623 76.5961C329.158 76.3461 328.801 75.9845 328.551 75.5068C328.301 75.0336 328.176 74.4488 328.176 73.7568C328.176 73.0559 328.306 72.4666 328.569 71.9889C328.828 71.5023 329.185 71.1452 329.64 70.9175C330.091 70.6809 330.596 70.5604 331.158 70.5604C332.024 70.5604 332.694 70.7925 333.158 71.2568C333.623 71.7122 333.855 72.3818 333.855 73.2747C333.855 73.5961 333.841 73.8461 333.819 74.0247L333.712 74.0961ZM332.373 73.0961C332.359 72.6318 332.252 72.2925 332.051 72.0782C331.846 71.8639 331.551 71.7568 331.158 71.7568C330.382 71.7568 329.926 72.2032 329.783 73.0961H332.373Z" fill="black"/>
</svg>
