<svg width="265" height="227" viewBox="0 0 265 227" fill="none" xmlns="http://www.w3.org/2000/svg">
<path d="M32.7762 196.487V204.48H0V161.427H31.992V169.42H9.73232V178.783H29.398V186.531H9.73232V196.487H32.7762Z" fill="#1C2D7B"/>
<path d="M56.0015 187.574L50.3109 193.604V204.48H40.5786V161.427H50.3109V181.543L69.0517 161.427H79.9503L62.416 180.623L80.9758 204.48H69.5343L56.0015 187.574Z" fill="#1C2D7B"/>
<path d="M113.2 195.26H93.5545L89.7943 204.48H79.7604L98.6218 161.427H108.314L127.236 204.48H116.96L113.2 195.26ZM110.124 187.696L103.407 171.219L96.6914 187.696H110.124Z" fill="#1C2D7B"/>
<path d="M160.248 182.279H169.216V199.738C166.909 201.511 164.239 202.865 161.213 203.806C158.197 204.746 155.151 205.216 152.084 205.216C147.685 205.216 143.729 204.266 140.22 202.354C136.721 200.448 133.972 197.806 131.976 194.422C129.975 191.044 128.98 187.221 128.98 182.953C128.98 178.691 129.975 174.868 131.976 171.485C133.972 168.106 136.747 165.464 140.301 163.553C143.85 161.646 147.841 160.691 152.265 160.691C155.975 160.691 159.343 161.335 162.359 162.612C165.386 163.88 167.934 165.72 170 168.132L163.707 174.04C160.675 170.8 157.021 169.175 152.748 169.175C150.053 169.175 147.65 169.757 145.549 170.912C143.458 172.057 141.829 173.682 140.663 175.778C139.496 177.863 138.913 180.255 138.913 182.953C138.913 185.626 139.496 188.013 140.663 190.109C141.829 192.194 143.448 193.824 145.529 194.995C147.605 196.155 149.973 196.732 152.627 196.732C155.452 196.732 157.996 196.119 160.248 194.892V182.279Z" fill="#1C2D7B"/>
<path d="M205.245 204.48L197.081 192.48H188.073V204.48H178.28V161.427H196.599C200.349 161.427 203.606 162.07 206.371 163.348C209.131 164.616 211.258 166.425 212.746 168.766C214.244 171.096 214.998 173.856 214.998 177.045C214.998 180.25 214.239 183.01 212.725 185.325C211.207 187.645 209.056 189.414 206.271 190.64L215.782 204.48H205.245ZM205.064 177.045C205.064 174.633 204.3 172.783 202.772 171.485C201.244 170.192 199.002 169.543 196.056 169.543H188.073V184.548H196.056C199.002 184.548 201.244 183.894 202.772 182.585C204.3 181.277 205.064 179.432 205.064 177.045Z" fill="#1C2D7B"/>
<path d="M250.599 195.26H230.954L227.194 204.48H217.16L236.021 161.427H245.713L264.635 204.48H254.36L250.599 195.26ZM247.523 187.696L240.807 171.219L234.091 187.696H247.523Z" fill="#1C2D7B"/>
<path d="M6.36666 214.499C7.85466 214.499 8.98574 214.898 9.76493 215.685C10.5542 216.462 10.9513 217.627 10.9513 219.181C10.9513 220.724 10.5542 221.889 9.76493 222.677C8.98574 223.453 7.85466 223.842 6.36666 223.842H3.04883V214.499H6.36666ZM6.24602 222.288C7.19612 222.288 7.90493 222.043 8.37747 221.552C8.84499 221.061 9.08126 220.274 9.08126 219.181C9.08126 218.077 8.84499 217.279 8.37747 216.789C7.90493 216.298 7.19612 216.053 6.24602 216.053H4.87866V222.288H6.24602Z" fill="black"/>
<path d="M24.7527 220.714H20.2887C20.3389 221.327 20.5149 221.777 20.8115 222.063C21.1031 222.339 21.5002 222.472 21.9979 222.472C22.4 222.472 22.7218 222.401 22.9631 222.247C23.2144 222.099 23.4155 221.869 23.5663 221.552H23.7071L24.8532 222.309C24.622 222.815 24.2801 223.223 23.8277 223.535C23.3702 223.837 22.762 223.985 21.9979 223.985C21.284 223.985 20.6707 223.847 20.1479 223.576C19.6251 223.29 19.2229 222.876 18.9414 222.329C18.6599 221.787 18.5192 221.118 18.5192 220.326C18.5192 219.523 18.6649 218.849 18.9615 218.302C19.2531 217.745 19.6553 217.336 20.168 217.075C20.6758 216.804 21.2438 216.666 21.8772 216.666C22.8525 216.666 23.6065 216.932 24.1293 217.464C24.6521 217.985 24.9135 218.751 24.9135 219.774C24.9135 220.142 24.8985 220.428 24.8733 220.632L24.7527 220.714ZM23.2446 219.569C23.2295 219.038 23.1088 218.649 22.8826 218.404C22.6514 218.159 22.3196 218.036 21.8772 218.036C21.0025 218.036 20.4898 218.547 20.3289 219.569H23.2446Z" fill="black"/>
<path d="M35.6846 223.985C35.011 223.985 34.4178 223.842 33.895 223.556C33.3822 223.269 32.9801 222.856 32.6885 222.309C32.407 221.752 32.2662 221.092 32.2662 220.326C32.2662 219.549 32.407 218.889 32.6885 218.343C32.9801 217.786 33.3822 217.372 33.895 217.096C34.4027 216.809 34.9859 216.666 35.6444 216.666C37.1022 216.666 38.0423 217.208 38.4595 218.281L37.2732 219.14H37.1324C36.9967 218.813 36.8107 218.568 36.5694 218.404C36.3381 218.24 36.0315 218.159 35.6444 218.159C35.1467 218.159 34.7596 218.338 34.4781 218.69C34.1966 219.048 34.0559 219.59 34.0559 220.326C34.0559 221.051 34.1966 221.588 34.4781 221.941C34.7697 222.298 35.1719 222.472 35.6846 222.472C36.0566 222.472 36.3733 222.37 36.6297 222.166C36.8961 221.961 37.0922 221.665 37.2128 221.266H37.3335L38.5802 221.941C38.4042 222.544 38.0775 223.034 37.5949 223.413C37.1223 223.796 36.4889 223.985 35.6846 223.985Z" fill="black"/>
<path d="M46.8708 215.951C46.5491 215.951 46.2876 215.859 46.0866 215.664C45.8955 215.475 45.8051 215.225 45.8051 214.908C45.8051 214.612 45.8955 214.366 46.0866 214.172C46.2876 213.968 46.5491 213.865 46.8708 213.865C47.0719 213.865 47.2528 213.916 47.4137 214.008C47.5846 214.106 47.7153 214.228 47.7958 214.376C47.8862 214.53 47.9365 214.704 47.9365 214.908C47.9365 215.112 47.8862 215.296 47.7958 215.46C47.7153 215.613 47.5846 215.736 47.4137 215.828C47.2528 215.91 47.0719 215.951 46.8708 215.951ZM46.0061 223.842V216.789H47.7354V223.842H46.0061Z" fill="black"/>
<path d="M58.1848 223.985C57.7123 223.985 57.28 223.929 56.8778 223.821C56.4857 223.699 56.1539 223.545 55.8724 223.351C55.6009 223.147 55.3999 222.917 55.2692 222.656L56.2344 221.593H56.355C56.5963 221.91 56.8678 222.145 57.1794 222.309C57.4861 222.472 57.8279 222.554 58.2049 222.554C58.5367 222.554 58.7931 222.493 58.9691 222.37C59.14 222.237 59.2305 222.058 59.2305 221.838C59.2305 221.649 59.1601 221.501 59.0294 221.389C58.9087 221.266 58.7127 221.174 58.4462 221.102L57.5213 220.878C56.8376 220.704 56.3349 220.443 56.0132 220.101C55.7015 219.763 55.5507 219.324 55.5507 218.792C55.5507 218.358 55.6562 217.985 55.8724 217.668C56.0986 217.341 56.4053 217.096 56.7974 216.932C57.1995 216.758 57.6671 216.666 58.2049 216.666C58.8182 216.666 59.336 216.763 59.7533 216.952C60.1655 217.131 60.4872 217.372 60.7185 217.668L59.7935 218.69H59.6527C59.4617 218.476 59.2506 218.317 59.0093 218.22C58.768 218.113 58.4965 218.056 58.2049 218.056C57.5213 218.056 57.1794 218.276 57.1794 218.711C57.1794 218.889 57.2398 219.038 57.3604 219.16C57.4911 219.273 57.7224 219.36 58.0441 219.426L58.8886 219.631C59.5974 219.784 60.1152 220.029 60.4369 220.367C60.7587 220.709 60.9195 221.164 60.9195 221.736C60.9195 222.176 60.8089 222.564 60.5978 222.902C60.3816 223.244 60.0649 223.51 59.6527 223.699C59.2355 223.888 58.7479 223.985 58.1848 223.985Z" fill="black"/>
<path d="M69.4217 215.951C69.1 215.951 68.8386 215.859 68.6375 215.664C68.4464 215.475 68.356 215.225 68.356 214.908C68.356 214.612 68.4464 214.366 68.6375 214.172C68.8386 213.968 69.1 213.865 69.4217 213.865C69.6228 213.865 69.8037 213.916 69.9646 214.008C70.1355 214.106 70.2662 214.228 70.3467 214.376C70.4371 214.53 70.4874 214.704 70.4874 214.908C70.4874 215.112 70.4371 215.296 70.3467 215.46C70.2662 215.613 70.1355 215.736 69.9646 215.828C69.8037 215.91 69.6228 215.951 69.4217 215.951ZM68.557 223.842V216.789H70.2863V223.842H68.557Z" fill="black"/>
<path d="M81.52 223.985C80.8464 223.985 80.2532 223.842 79.7304 223.556C79.2176 223.269 78.8255 222.856 78.544 222.309C78.2625 221.767 78.1217 221.102 78.1217 220.326C78.1217 219.549 78.2625 218.889 78.544 218.343C78.8255 217.786 79.2176 217.372 79.7304 217.096C80.2532 216.809 80.8464 216.666 81.52 216.666C82.2036 216.666 82.7968 216.809 83.3096 217.096C83.8324 217.372 84.2346 217.786 84.5161 218.343C84.7976 218.889 84.9383 219.549 84.9383 220.326C84.9383 221.102 84.7976 221.767 84.5161 222.309C84.2346 222.856 83.8324 223.269 83.3096 223.556C82.7968 223.842 82.2036 223.985 81.52 223.985ZM81.52 222.472C82.6058 222.472 83.1487 221.757 83.1487 220.326C83.1487 219.579 83.008 219.033 82.7265 218.69C82.4449 218.338 82.0428 218.159 81.52 218.159C80.4442 218.159 79.9113 218.884 79.9113 220.326C79.9113 221.757 80.4442 222.472 81.52 222.472Z" fill="black"/>
<path d="M92.7723 223.842V216.789H94.4413V217.832L94.562 217.852C95.0043 217.065 95.7081 216.666 96.6733 216.666C97.4626 216.666 98.0457 216.891 98.4227 217.341C98.7947 217.78 98.9857 218.419 98.9857 219.263V223.842H97.2564V219.487C97.2564 219.012 97.1609 218.67 96.9749 218.465C96.7839 218.261 96.4923 218.159 96.0902 218.159C95.5925 218.159 95.2054 218.322 94.9239 218.649C94.6424 218.976 94.5016 219.498 94.5016 220.203V223.842H92.7723Z" fill="black"/>
<path d="M118.364 223.842H116.534V214.499H118.364V223.842Z" fill="black"/>
<path d="M126.777 223.842V216.789H128.446V217.832L128.567 217.852C129.009 217.065 129.713 216.666 130.678 216.666C131.468 216.666 132.051 216.891 132.428 217.341C132.8 217.78 132.991 218.419 132.991 219.263V223.842H131.262V219.487C131.262 219.012 131.166 218.67 130.98 218.465C130.789 218.261 130.497 218.159 130.095 218.159C129.598 218.159 129.211 218.322 128.929 218.649C128.648 218.976 128.507 219.498 128.507 220.203V223.842H126.777Z" fill="black"/>
<path d="M144.889 222.166L145.332 223.474C145.141 223.627 144.909 223.75 144.628 223.842C144.346 223.934 144.025 223.985 143.663 223.985C142.909 223.985 142.341 223.781 141.953 223.372C141.561 222.953 141.37 222.339 141.37 221.532V218.2H140.305V216.789H141.37V215.419L143.1 215.133V216.789H145.07V218.2H143.1V221.409C143.1 221.767 143.17 222.022 143.321 222.186C143.467 222.339 143.673 222.411 143.944 222.411C144.251 222.411 144.517 222.329 144.748 222.166H144.889Z" fill="black"/>
<path d="M158.559 220.714H154.095C154.145 221.327 154.321 221.777 154.618 222.063C154.91 222.339 155.307 222.472 155.804 222.472C156.207 222.472 156.528 222.401 156.77 222.247C157.021 222.099 157.222 221.869 157.373 221.552H157.514L158.66 222.309C158.428 222.815 158.087 223.223 157.634 223.535C157.177 223.837 156.568 223.985 155.804 223.985C155.091 223.985 154.477 223.847 153.954 223.576C153.432 223.29 153.029 222.876 152.748 222.329C152.466 221.787 152.326 221.118 152.326 220.326C152.326 219.523 152.471 218.849 152.768 218.302C153.06 217.745 153.462 217.336 153.975 217.075C154.482 216.804 155.05 216.666 155.684 216.666C156.659 216.666 157.413 216.932 157.936 217.464C158.459 217.985 158.72 218.751 158.72 219.774C158.72 220.142 158.705 220.428 158.68 220.632L158.559 220.714ZM157.051 219.569C157.036 219.038 156.915 218.649 156.689 218.404C156.458 218.159 156.126 218.036 155.684 218.036C154.809 218.036 154.296 218.547 154.135 219.569H157.051Z" fill="black"/>
<path d="M168.325 223.985C167.707 223.985 167.229 223.816 166.897 223.474C166.576 223.121 166.415 222.595 166.415 221.9V213.968H168.144V221.839C168.144 222.263 168.315 222.472 168.667 222.472C168.772 222.472 168.878 222.462 168.989 222.431L169.089 222.452L169.23 223.801C169.134 223.852 169.009 223.893 168.848 223.924C168.697 223.965 168.526 223.985 168.325 223.985Z" fill="black"/>
<path d="M178.523 223.985C177.905 223.985 177.427 223.816 177.096 223.474C176.774 223.121 176.613 222.595 176.613 221.9V213.968H178.342V221.839C178.342 222.263 178.513 222.472 178.865 222.472C178.971 222.472 179.076 222.462 179.187 222.431L179.287 222.452L179.428 223.801C179.333 223.852 179.207 223.893 179.046 223.924C178.895 223.965 178.724 223.985 178.523 223.985Z" fill="black"/>
<path d="M187.716 215.951C187.394 215.951 187.133 215.859 186.932 215.664C186.741 215.475 186.65 215.225 186.65 214.908C186.65 214.612 186.741 214.366 186.932 214.172C187.133 213.968 187.394 213.865 187.716 213.865C187.917 213.865 188.098 213.916 188.259 214.008C188.43 214.106 188.561 214.228 188.641 214.376C188.731 214.53 188.782 214.704 188.782 214.908C188.782 215.112 188.731 215.296 188.641 215.46C188.561 215.613 188.43 215.736 188.259 215.828C188.098 215.91 187.917 215.951 187.716 215.951ZM186.851 223.842V216.789H188.581V223.842H186.851Z" fill="black"/>
<path d="M199.392 226.826C198.236 226.826 197.386 226.653 196.838 226.315C196.3 225.973 196.034 225.503 196.034 224.905C196.034 224.521 196.144 224.215 196.376 223.985C196.617 223.755 196.949 223.596 197.381 223.515V223.372C197.15 223.239 196.984 223.08 196.878 222.901C196.783 222.728 196.738 222.513 196.738 222.268C196.738 221.71 197.1 221.327 197.823 221.123V221C197.446 220.785 197.165 220.52 196.979 220.203C196.788 219.876 196.697 219.482 196.697 219.017C196.697 218.557 196.798 218.148 196.999 217.79C197.21 217.438 197.522 217.167 197.924 216.973C198.336 216.768 198.834 216.666 199.412 216.666C199.985 216.666 200.443 216.768 200.779 216.973C200.99 216.661 201.121 216.293 201.161 215.869L201.282 215.787L202.549 216.114C202.509 216.441 202.408 216.722 202.247 216.952C202.096 217.187 201.855 217.392 201.523 217.566V217.709C201.91 218.051 202.106 218.537 202.106 219.16C202.106 219.6 201.996 219.993 201.785 220.346C201.584 220.688 201.272 220.959 200.86 221.164C200.458 221.358 199.975 221.45 199.412 221.45H199.151C198.975 221.44 198.854 221.429 198.789 221.429C198.628 221.429 198.497 221.48 198.407 221.572C198.326 221.654 198.286 221.767 198.286 221.9C198.286 222.053 198.336 222.165 198.447 222.247C198.567 222.329 198.738 222.38 198.97 222.39L200.518 222.452C202.056 222.492 202.83 223.162 202.83 224.455C202.83 224.905 202.715 225.303 202.489 225.661C202.257 226.029 201.885 226.315 201.362 226.52C200.85 226.724 200.196 226.826 199.392 226.826ZM199.412 220.203C199.744 220.203 200.005 220.111 200.196 219.917C200.382 219.712 200.478 219.426 200.478 219.058C200.478 218.69 200.382 218.414 200.196 218.22C200.005 218.015 199.744 217.913 199.412 217.913C199.06 217.913 198.794 218.015 198.608 218.22C198.432 218.414 198.346 218.69 198.346 219.058C198.346 219.426 198.432 219.712 198.608 219.917C198.794 220.111 199.06 220.203 199.412 220.203ZM199.392 225.539C199.98 225.539 200.407 225.447 200.679 225.273C200.945 225.109 201.081 224.889 201.081 224.619C201.081 224.399 201.011 224.235 200.88 224.128C200.744 224.031 200.523 223.975 200.216 223.964L198.849 223.903C198.809 223.903 198.769 223.903 198.728 223.903C198.688 223.903 198.648 223.903 198.608 223.903C198.311 223.903 198.085 223.964 197.924 224.087C197.773 224.21 197.703 224.383 197.703 224.619C197.703 224.915 197.844 225.14 198.125 225.293C198.407 225.457 198.829 225.539 199.392 225.539Z" fill="black"/>
<path d="M216.07 220.714H211.606C211.656 221.327 211.832 221.777 212.129 222.063C212.42 222.339 212.818 222.472 213.315 222.472C213.717 222.472 214.039 222.401 214.28 222.247C214.532 222.099 214.733 221.869 214.884 221.552H215.024L216.171 222.309C215.939 222.815 215.598 223.223 215.145 223.535C214.688 223.837 214.079 223.985 213.315 223.985C212.601 223.985 211.988 223.847 211.465 223.576C210.942 223.29 210.54 222.876 210.259 222.329C209.977 221.787 209.837 221.118 209.837 220.326C209.837 219.523 209.982 218.849 210.279 218.302C210.57 217.745 210.973 217.336 211.485 217.075C211.993 216.804 212.561 216.666 213.195 216.666C214.17 216.666 214.924 216.932 215.447 217.464C215.97 217.985 216.231 218.751 216.231 219.774C216.231 220.142 216.216 220.428 216.191 220.632L216.07 220.714ZM214.562 219.569C214.547 219.038 214.426 218.649 214.2 218.404C213.969 218.159 213.637 218.036 213.195 218.036C212.32 218.036 211.807 218.547 211.646 219.569H214.562Z" fill="black"/>
<path d="M223.966 223.842V216.789H225.635V217.832L225.755 217.852C226.198 217.065 226.901 216.666 227.867 216.666C228.656 216.666 229.239 216.891 229.616 217.341C229.988 217.78 230.179 218.419 230.179 219.263V223.842H228.45V219.487C228.45 219.012 228.354 218.67 228.168 218.465C227.977 218.261 227.686 218.159 227.284 218.159C226.786 218.159 226.399 218.322 226.117 218.649C225.836 218.976 225.695 219.498 225.695 220.203V223.842H223.966Z" fill="black"/>
<path d="M241.333 223.985C240.66 223.985 240.067 223.842 239.544 223.556C239.031 223.269 238.629 222.856 238.337 222.309C238.056 221.752 237.915 221.092 237.915 220.326C237.915 219.549 238.056 218.889 238.337 218.343C238.629 217.786 239.031 217.372 239.544 217.096C240.052 216.809 240.635 216.666 241.293 216.666C242.751 216.666 243.691 217.208 244.108 218.281L242.922 219.14H242.781C242.645 218.813 242.459 218.568 242.218 218.404C241.987 218.24 241.68 218.159 241.293 218.159C240.796 218.159 240.408 218.338 240.127 218.69C239.845 219.048 239.705 219.59 239.705 220.326C239.705 221.051 239.845 221.588 240.127 221.941C240.418 222.298 240.821 222.472 241.333 222.472C241.705 222.472 242.022 222.37 242.278 222.166C242.545 221.961 242.741 221.665 242.862 221.266H242.982L244.229 221.941C244.053 222.544 243.726 223.034 243.244 223.413C242.771 223.796 242.138 223.985 241.333 223.985Z" fill="black"/>
<path d="M257.506 220.714H253.042C253.092 221.327 253.268 221.777 253.565 222.063C253.857 222.339 254.254 222.472 254.751 222.472C255.154 222.472 255.475 222.401 255.717 222.247C255.968 222.099 256.169 221.869 256.32 221.552H256.461L257.607 222.309C257.376 222.815 257.034 223.223 256.581 223.535C256.124 223.837 255.516 223.985 254.751 223.985C254.038 223.985 253.424 223.847 252.901 223.576C252.379 223.29 251.976 222.876 251.695 222.329C251.413 221.787 251.273 221.118 251.273 220.326C251.273 219.523 251.418 218.849 251.715 218.302C252.007 217.745 252.409 217.336 252.922 217.075C253.429 216.804 253.997 216.666 254.631 216.666C255.606 216.666 256.36 216.932 256.883 217.464C257.406 217.985 257.667 218.751 257.667 219.774C257.667 220.142 257.652 220.428 257.627 220.632L257.506 220.714ZM255.998 219.569C255.983 219.038 255.862 218.649 255.636 218.404C255.405 218.159 255.073 218.036 254.631 218.036C253.756 218.036 253.243 218.547 253.082 219.569H255.998Z" fill="black"/>
<mask id="mask0_1_11092" style="mask-type:luminance" maskUnits="userSpaceOnUse" x="94" y="0" width="73" height="70">
<path d="M94.0863 0.107422H166.154V69.4516H94.0863V0.107422Z" fill="white"/>
</mask>
<g mask="url(#mask0_1_11092)">
<mask id="mask1_1_11092" style="mask-type:luminance" maskUnits="userSpaceOnUse" x="94" y="-4" width="72" height="73">
<path d="M165.249 32.4235L129.758 68.5062L94.2673 32.4235L129.758 -3.65918L165.249 32.4235Z" fill="white"/>
</mask>
<g mask="url(#mask1_1_11092)">
<mask id="mask2_1_11092" style="mask-type:luminance" maskUnits="userSpaceOnUse" x="94" y="-4" width="72" height="73">
<path d="M165.249 32.4235L129.758 68.5062L94.2673 32.4235L129.758 -3.65918L165.249 32.4235Z" fill="white"/>
</mask>
<g mask="url(#mask2_1_11092)">
<path d="M129.492 68.777L93.7697 32.4592L100.923 25.1916L124.434 49.1002V1.21143H134.549V49.1002L158.06 25.1916L165.214 32.4592L129.492 68.777Z" fill="#85D6FF"/>
</g>
</g>
</g>
<mask id="mask3_1_11092" style="mask-type:luminance" maskUnits="userSpaceOnUse" x="52" y="43" width="68" height="74">
<path d="M52.905 43.2841H119.825V116.553H52.905V43.2841Z" fill="white"/>
</mask>
<g mask="url(#mask3_1_11092)">
<mask id="mask4_1_11092" style="mask-type:luminance" maskUnits="userSpaceOnUse" x="48" y="43" width="72" height="73">
<path d="M82.655 43.5652L119.342 78.3906L85.0931 115.685L48.4059 80.8643L82.655 43.5652Z" fill="white"/>
</mask>
<g mask="url(#mask4_1_11092)">
<mask id="mask5_1_11092" style="mask-type:luminance" maskUnits="userSpaceOnUse" x="48" y="43" width="72" height="73">
<path d="M82.655 43.5652L119.342 78.3906L85.0931 115.685L48.4059 80.8643L82.655 43.5652Z" fill="white"/>
</mask>
<g mask="url(#mask5_1_11092)">
<path d="M119.619 78.6514L85.1433 116.191L77.7535 109.173L100.451 84.4624L53.3775 86.103L53.0306 75.8302L100.104 74.1896L75.793 51.114L82.6951 43.6011L119.619 78.6514Z" fill="#66CC66"/>
</g>
</g>
</g>
<mask id="mask6_1_11092" style="mask-type:luminance" maskUnits="userSpaceOnUse" x="139" y="41" width="68" height="75">
<path d="M139.129 41.9756H206.048V115.245H139.129V41.9756Z" fill="white"/>
</mask>
<g mask="url(#mask6_1_11092)">
<mask id="mask7_1_11092" style="mask-type:luminance" maskUnits="userSpaceOnUse" x="139" y="42" width="72" height="73">
<path d="M175.75 42.4662L210.603 79.1826L174.489 114.616L139.636 77.9049L175.75 42.4662Z" fill="white"/>
</mask>
<g mask="url(#mask7_1_11092)">
<mask id="mask8_1_11092" style="mask-type:luminance" maskUnits="userSpaceOnUse" x="139" y="43" width="72" height="73">
<path d="M174.479 115.158L139.626 78.4465L175.74 43.0078L210.593 79.7242L174.479 115.158Z" fill="white"/>
</mask>
<g mask="url(#mask8_1_11092)">
<path d="M139.365 78.1704L175.71 42.5017L182.733 49.9022L158.804 73.3815L205.898 74.2299L205.722 84.5079L158.624 83.6595L181.723 107.987L174.444 115.122L139.365 78.1704Z" fill="#009999"/>
</g>
</g>
</g>
<mask id="mask9_1_11092" style="mask-type:luminance" maskUnits="userSpaceOnUse" x="92" y="89" width="72" height="69">
<path d="M92.7996 89.0775H163.58V157.113H92.7996V89.0775Z" fill="white"/>
</mask>
<g mask="url(#mask9_1_11092)">
<mask id="mask10_1_11092" style="mask-type:luminance" maskUnits="userSpaceOnUse" x="92" y="89" width="72" height="73">
<path d="M163.857 126.474L127.129 161.248L92.9253 123.908L129.653 89.1338L163.857 126.474Z" fill="white"/>
</mask>
<g mask="url(#mask10_1_11092)">
<mask id="mask11_1_11092" style="mask-type:luminance" maskUnits="userSpaceOnUse" x="92" y="89" width="72" height="73">
<path d="M92.3925 123.888L129.12 89.1134L163.324 126.453L126.596 161.228L92.3925 123.888Z" fill="white"/>
</mask>
<g mask="url(#mask11_1_11092)">
<path d="M129.396 88.8528L163.822 126.438L156.422 133.44L133.76 108.698L132.081 156.556L121.977 156.188L123.656 108.335L99.3198 131.375L92.4277 123.852L129.396 88.8528Z" fill="#E88B2E"/>
</g>
</g>
</g>
<mask id="mask12_1_11092" style="mask-type:luminance" maskUnits="userSpaceOnUse" x="119" y="68" width="21" height="21">
<path d="M119.629 68.7875H139.36V88.8476H119.629V68.7875Z" fill="white"/>
</mask>
<g mask="url(#mask12_1_11092)">
<mask id="mask13_1_11092" style="mask-type:luminance" maskUnits="userSpaceOnUse" x="119" y="68" width="21" height="21">
<path d="M129.497 68.7875L139.36 78.8201L129.497 88.8476L119.629 78.8201L129.497 68.7875Z" fill="white"/>
</mask>
<g mask="url(#mask13_1_11092)">
<path d="M119.629 68.7875H139.36V88.8476H119.629V68.7875Z" fill="#FF5757"/>
</g>
</g>
</svg>
