<svg width="24" height="24" viewBox="0 0 24 24" fill="none" xmlns="http://www.w3.org/2000/svg">
<g id="material-symbols:more-horiz">
<path id="Vector" d="M4.15 12.0002V12C4.15 11.4901 4.32995 11.0572 4.69407 10.6931C5.05818 10.329 5.49074 10.1494 5.99982 10.15H6C6.50986 10.15 6.94281 10.3299 7.30694 10.6941C7.67105 11.0582 7.85062 11.4907 7.85 11.9998V12C7.85 12.5099 7.67006 12.9428 7.30594 13.3069C6.94182 13.6711 6.50926 13.8506 6.00018 13.85H6C5.49014 13.85 5.05719 13.6701 4.69307 13.3059C4.32895 12.9418 4.14938 12.5093 4.15 12.0002ZM11.9998 10.15H12C12.5099 10.15 12.9428 10.3299 13.3069 10.6941C13.6711 11.0582 13.8506 11.4907 13.85 11.9998V12C13.85 12.5099 13.6701 12.9428 13.3059 13.3069C12.9418 13.6711 12.5093 13.8506 12.0002 13.85H12C11.4901 13.85 11.0572 13.6701 10.6931 13.3059C10.329 12.9418 10.1494 12.5093 10.15 12.0002V12C10.15 11.4901 10.3299 11.0572 10.6941 10.6931C11.0582 10.329 11.4907 10.1494 11.9998 10.15ZM17.9998 10.15H18C18.5099 10.15 18.9428 10.3299 19.3069 10.6941C19.6711 11.0582 19.8506 11.4907 19.85 11.9998V12C19.85 12.5099 19.6701 12.9428 19.3059 13.3069C18.9418 13.6711 18.5093 13.8506 18.0002 13.85H18C17.4901 13.85 17.0572 13.6701 16.6931 13.3059C16.329 12.9418 16.1494 12.5093 16.15 12.0002V12C16.15 11.4901 16.3299 11.0572 16.6941 10.6931C17.0582 10.329 17.4907 10.1494 17.9998 10.15Z" fill="#888888" stroke="white" stroke-width="0.3"/>
</g>
</svg>
